<svg width="189" height="190" viewBox="0 0 189 190" fill="#d8ebf5" xmlns="http://www.w3.org/2000/svg">
<path d="M189 91.04C187.853 68.86 180.33 49.7067 166.43 33.58C130.45 -8.16999 65.45 -10.09 27.09 29.72C-20.63 79.25 0.399994 162.52 65.56 183.46C92.03 191.96 121.78 188.62 145.33 173.47C171.93 156.35 186.487 131.22 189 98.08" stroke="#67596C" stroke-width="2"/>
<path d="M76.25 167.38C83.5833 168.867 89.8267 169.387 94.98 168.94C95.5667 168.887 96.9033 168.86 98.99 168.86C101.937 168.86 105.153 168.543 108.64 167.91C111.733 167.35 114.833 166.477 117.94 165.29C127.7 161.57 136.567 156.283 144.54 149.43C145.52 148.59 146.89 148.32 147.81 147.2C148.703 146.107 149.177 145.533 149.23 145.48C152.523 142.26 155.7 138.227 158.76 133.38C162.347 127.707 164.667 123.08 165.72 119.5C167.507 113.44 168.803 108.61 169.61 105.01C171.45 96.8034 171.437 88.42 169.57 79.86C168.943 77.0134 167.707 72.56 165.86 66.5C164.627 62.4734 163.107 58.8734 161.3 55.7C156.32 46.96 150.53 38.62 142.52 32.41C139.253 29.87 136.237 27.6767 133.47 25.83C130.343 23.75 127.01 22.0267 123.47 20.66C123.09 20.5134 122.58 20.2267 121.94 19.8C120.63 18.92 118.87 18.89 117.77 18.36C116.7 17.85 115.31 16.99 114.16 16.78C111.293 16.2467 108.52 15.43 105.84 14.33C104.653 13.8367 103.553 13.5667 102.54 13.52C99.62 13.38 96.73 13.62 93.92 13.38C89.1667 12.9734 84.9467 13.0567 81.26 13.63C77.2534 14.2567 72.0867 15.6 65.76 17.66C61.7734 18.9534 56.5133 21.5967 49.98 25.59C45.2133 28.4967 39.7334 33.1467 33.54 39.54C31.47 41.68 30.79 44.12 29.66 45.83C25.68 51.9234 21.86 59.4067 18.2 68.28C15.4734 74.9067 13.9267 81.2734 13.56 87.38C13.4534 89.1267 13.6267 91.5234 14.08 94.57C14.4334 96.95 14.6967 99.3434 14.87 101.75C15.45 109.963 17.6233 117.653 21.39 124.82C22.0367 126.053 23.2867 127.877 25.14 130.29C26.82 132.48 28.21 135.57 30.1 137.48C30.6067 137.987 31.02 138.56 31.34 139.2C32 140.507 32.5134 141.37 32.88 141.79C37.3 146.763 42.1867 151.23 47.54 155.19C48.52 155.92 49.79 156.12 50.76 156.74C57.56 161.02 64.86 164.133 72.66 166.08C72.98 166.16 73.2767 166.29 73.55 166.47C74.0834 166.823 74.9833 167.127 76.25 167.38Z" stroke="#C5BBDD" stroke-width="2"/>
<path d="M91.4 32.11C91.8333 32.0233 92.27 32.0266 92.71 32.12C92.8981 32.1613 93.0947 32.1307 93.2599 32.0341C93.4251 31.9376 93.5467 31.7824 93.6 31.6L93.89 30.65C93.9967 30.2966 93.87 30.0733 93.51 29.98C86.99 28.35 87.58 37.33 93.49 35.42C93.81 35.3133 93.9467 35.0966 93.9 34.77C93.6933 33.3833 92.89 32.7233 91.49 32.79C91.4046 32.7896 91.3215 32.7579 91.2566 32.701C91.1917 32.644 91.1496 32.5659 91.1385 32.4815C91.1273 32.3972 91.1478 32.3126 91.1961 32.244C91.2444 32.1754 91.317 32.1277 91.4 32.11Z" stroke="#84799F" stroke-width="2"/>
<path d="M100.52 32.7C100.52 32.3178 100.445 31.9394 100.298 31.5864C100.152 31.2333 99.9379 30.9125 99.6676 30.6423C99.3974 30.3721 99.0766 30.1577 98.7236 30.0115C98.3705 29.8652 97.9921 29.79 97.61 29.79C97.2278 29.79 96.8494 29.8652 96.4963 30.0115C96.1433 30.1577 95.8225 30.3721 95.5523 30.6423C95.2821 30.9125 95.0677 31.2333 94.9215 31.5864C94.7752 31.9394 94.7 32.3178 94.7 32.7C94.7 33.4718 95.0065 34.2119 95.5523 34.7577C96.098 35.3034 96.8382 35.61 97.61 35.61C98.3817 35.61 99.1219 35.3034 99.6676 34.7577C100.213 34.2119 100.52 33.4718 100.52 32.7Z" stroke="#84799F" stroke-width="2"/>
<path d="M107.16 32.7C107.16 31.9256 106.852 31.1829 106.305 30.6353C105.757 30.0877 105.014 29.78 104.24 29.78C103.466 29.78 102.723 30.0877 102.175 30.6353C101.628 31.1829 101.32 31.9256 101.32 32.7C101.32 33.4745 101.628 34.2172 102.175 34.7648C102.723 35.3124 103.466 35.62 104.24 35.62C105.014 35.62 105.757 35.3124 106.305 34.7648C106.852 34.2172 107.16 33.4745 107.16 32.7Z" stroke="#84799F" stroke-width="2"/>
<path d="M110.88 34.5C111.293 35.44 112.02 35.84 113.06 35.7C113.321 35.6633 113.559 35.5307 113.729 35.3278C113.898 35.1248 113.988 34.8657 113.98 34.6L113.84 30.57C113.827 30.25 113.667 30.0367 113.36 29.93C112.247 29.55 111.423 29.8467 110.89 30.82C110.643 31.2667 110.413 31.26 110.2 30.8C109.887 30.1267 109.36 29.8233 108.62 29.89C108.472 29.9001 108.334 29.9663 108.232 30.0757C108.13 30.185 108.072 30.3293 108.07 30.48L108.01 35.01C108.01 35.1286 108.05 35.2437 108.122 35.3377C108.194 35.4317 108.295 35.4993 108.41 35.53C109.47 35.81 110.12 35.48 110.36 34.54C110.493 34.0267 110.667 34.0133 110.88 34.5Z" stroke="#84799F" stroke-width="2"/>
<path d="M71.74 33.98L72.12 35C72.1692 35.1285 72.2502 35.242 72.3554 35.3296C72.4605 35.4172 72.5861 35.4759 72.72 35.5C74.72 35.8267 76.5467 35.51 78.2 34.55C78.5 34.3767 78.78 34.4033 79.04 34.63C79.76 35.2833 80.6233 35.5867 81.63 35.54C82.0633 35.52 82.2067 35.3067 82.06 34.9L80.51 30.61C80.3833 30.2633 80.1367 30.06 79.77 30C76.97 29.52 75.5967 30.62 75.65 33.3C75.6567 33.6 75.5433 33.8533 75.31 34.06L74.74 34.55C74.6596 34.6187 74.5609 34.6622 74.456 34.6753C74.3511 34.6884 74.2446 34.6704 74.1499 34.6235C74.0551 34.5767 73.9762 34.5031 73.9229 34.4118C73.8696 34.3205 73.8442 34.2155 73.85 34.11L74.05 30.8C74.0568 30.6955 74.0425 30.5908 74.008 30.4921C73.9735 30.3935 73.9195 30.303 73.8493 30.2263C73.7791 30.1496 73.6942 30.0881 73.5998 30.0458C73.5053 30.0034 73.4033 29.981 73.3 29.98L69.18 29.92C69.0916 29.9173 69.0036 29.9321 68.9212 29.9636C68.8388 29.9951 68.7636 30.0425 68.7002 30.1032C68.6368 30.1638 68.5864 30.2363 68.552 30.3165C68.5176 30.3967 68.4999 30.4829 68.5 30.57V34.9C68.4999 35.0716 68.5667 35.2365 68.6862 35.3598C68.8057 35.483 68.9684 35.5548 69.14 35.56L70.22 35.58C70.6133 35.5933 70.84 35.4067 70.9 35.02L71.06 34.05C71.0691 33.9708 71.105 33.897 71.1617 33.841C71.2184 33.7849 71.2926 33.7499 71.3719 33.7418C71.4512 33.7336 71.5309 33.7528 71.5979 33.7961C71.6648 33.8394 71.715 33.9043 71.74 33.98Z" stroke="#84799F" stroke-width="2"/>
<path d="M85.94 32.2C86.96 32.18 87.6466 31.7133 88 30.8C88.0426 30.6872 88.0393 30.5622 87.9906 30.4518C87.942 30.3415 87.852 30.2547 87.74 30.21C81.4 27.6 81.1 37.6 87.57 35.33C87.9033 35.21 88.0266 34.98 87.94 34.64L87.67 33.57C87.6332 33.418 87.5479 33.2821 87.427 33.1829C87.3061 33.0837 87.1562 33.0265 87 33.02L85.94 32.98C85.8365 32.98 85.7373 32.9389 85.6642 32.8658C85.5911 32.7926 85.55 32.6935 85.55 32.59C85.55 32.4866 85.5911 32.3874 85.6642 32.3142C85.7373 32.2411 85.8365 32.2 85.94 32.2Z" stroke="#84799F" stroke-width="2"/>
<path d="M114.83 30.58C114.69 31.12 114.747 31.6067 115 32.04C115.106 32.2185 115.262 32.3618 115.448 32.4517C115.635 32.5417 115.845 32.5743 116.05 32.5454C116.255 32.5165 116.448 32.4275 116.602 32.2895C116.757 32.1515 116.868 31.9707 116.92 31.77C117.213 30.63 116.823 30.0167 115.75 29.93C115.545 29.9137 115.34 29.9698 115.172 30.0885C115.004 30.2073 114.883 30.3812 114.83 30.58Z" stroke="#84799F" stroke-width="2"/>
<path d="M120.95 31.15C121.457 31.4233 121.747 31.54 121.82 31.5C121.99 31.4018 122.128 31.2497 122.212 31.0678C122.296 30.886 122.322 30.6848 122.285 30.4963C122.249 30.3079 122.151 30.1429 122.009 30.0276C121.867 29.9123 121.688 29.8533 121.5 29.86L118.71 29.98C118.343 29.9933 118.157 30.18 118.15 30.54L118.1 32.47C118.093 32.8767 118.293 33.0933 118.7 33.12C119.253 33.1467 119.633 33.4 119.84 33.88C119.858 33.9227 119.864 33.9696 119.857 34.0154C119.85 34.0613 119.83 34.1042 119.8 34.1395C119.77 34.1748 119.731 34.201 119.686 34.2152C119.642 34.2294 119.595 34.2311 119.55 34.22L118.47 33.98C118.287 33.9442 118.097 33.9795 117.938 34.0788C117.78 34.178 117.665 34.3336 117.617 34.5133C117.57 34.6931 117.593 34.8832 117.683 35.0445C117.773 35.2058 117.922 35.3259 118.1 35.38C119.38 35.76 120.697 35.7467 122.05 35.34C122.395 35.2399 122.682 35.0203 122.861 34.7206C123.039 34.4208 123.097 34.0604 123.023 33.7036C122.95 33.3467 122.751 33.0168 122.461 32.7725C122.171 32.5282 121.809 32.3856 121.44 32.37C121.12 32.3567 120.797 32.15 120.47 31.75C120.409 31.6812 120.375 31.5931 120.373 31.5014C120.37 31.4096 120.401 31.32 120.458 31.2483C120.515 31.1766 120.596 31.1274 120.686 31.1095C120.776 31.0915 120.87 31.1059 120.95 31.15Z" stroke="#84799F" stroke-width="2"/>
<path d="M115.7 135.06C119.56 134.867 123.39 134.437 127.19 133.77C130.87 133.12 131.95 129.56 134.89 127.79C142.87 123.003 149.933 117.093 156.08 110.06C156.82 109.213 157.093 108.263 156.9 107.21C156.84 106.87 156.68 106.59 156.42 106.37C154.24 104.523 153.547 101.99 154.34 98.77C155.24 95.11 156.49 91.6767 158.09 88.47C158.239 88.1704 158.306 87.8363 158.284 87.5023C158.261 87.1683 158.151 86.8465 157.963 86.5703C157.776 86.294 157.518 86.0732 157.217 85.9308C156.916 85.7883 156.582 85.7294 156.25 85.76C146.21 86.67 136.93 85.59 135.6 73.48C134.9 67.22 138.62 59.58 140.86 54.84C142.51 51.36 144.89 42.63 140.21 40.54C135.5 38.44 124.82 45.89 120.6 48.62C117.68 50.51 114.06 51.33 111 50.55C99.5201 47.6567 88.0767 47.7 76.6701 50.68C72.7001 51.71 59.8501 43.14 56.2101 40.72C50.4101 36.84 44.4501 41.63 46.2301 48.02C47.7234 53.42 49.4601 58.7533 51.4401 64.02C53.6334 69.8667 52.6501 75.3533 48.4901 80.48C45.7901 83.8067 42.0967 85.4133 37.4101 85.3C35.2401 85.25 33.1001 84.29 30.9501 83.75C30.7411 83.6982 30.5227 83.6968 30.3132 83.7458C30.1036 83.7949 29.909 83.893 29.7456 84.0319C29.5821 84.1709 29.4546 84.3467 29.3736 84.5447C29.2926 84.7427 29.2605 84.9571 29.2801 85.17C29.7067 89.97 30.4167 94.5067 31.4101 98.78C32.0101 101.327 31.3701 103.417 29.4901 105.05C29.3506 105.167 29.2409 105.317 29.1696 105.485C29.0984 105.654 29.0677 105.837 29.0801 106.02C29.1334 106.68 29.3801 107.49 29.8201 108.45C33.9134 117.203 40.2567 123.05 48.8501 125.99C48.9346 126.016 49.0112 126.068 49.0701 126.14L54.1801 131.96C54.2962 132.083 54.4483 132.16 54.6101 132.18L71.2101 133.96C71.6234 134.007 71.9234 134.213 72.1101 134.58C74.0801 138.5 76.5501 141.82 80.6701 143.62C90.4301 147.89 103.31 145.93 109.85 136.9C111.33 134.85 113.1 134.4 115.26 135.57C115.276 135.577 115.293 135.58 115.31 135.58C115.327 135.58 115.344 135.577 115.359 135.57C115.375 135.564 115.388 135.554 115.398 135.542C115.409 135.53 115.416 135.515 115.42 135.5C115.447 135.407 115.473 135.313 115.5 135.22C115.513 135.176 115.539 135.137 115.574 135.108C115.61 135.079 115.654 135.062 115.7 135.06Z" stroke="#706E7D" stroke-width="2"/>
<path d="M80.25 43.25L81.09 43.14C81.5967 43.0733 81.8034 42.79 81.71 42.29L81.6 41.75C81.5555 41.5362 81.5845 41.3135 81.6822 41.1182C81.7799 40.9229 81.9408 40.7662 82.1386 40.6737C82.3365 40.5811 82.5598 40.558 82.7724 40.6082C82.9849 40.6583 83.1744 40.7788 83.31 40.95C84.52 42.44 83.69 45.09 86.12 45.26C86.4934 45.28 86.73 45.11 86.83 44.75L87.13 43.62C87.1534 43.5289 87.2054 43.4477 87.2783 43.3883C87.3513 43.3289 87.4413 43.2944 87.5353 43.29C87.6292 43.2855 87.7221 43.3112 87.8004 43.3634C87.8786 43.4156 87.9381 43.4915 87.97 43.58L88.36 44.63C88.4401 44.8493 88.5862 45.0385 88.7782 45.1714C88.9701 45.3044 89.1986 45.3746 89.4321 45.3724C89.6656 45.3702 89.8927 45.2957 90.0821 45.1592C90.2716 45.0227 90.4141 44.8308 90.49 44.61L91.93 40.4C91.9721 40.2774 91.9821 40.1462 91.9592 40.0186C91.9362 39.8911 91.881 39.7715 91.7989 39.6713C91.7167 39.5711 91.6103 39.4936 91.4897 39.4461C91.3692 39.3986 91.2384 39.3828 91.11 39.4C90.33 39.5 89.7867 39.9067 89.48 40.62C89.4472 40.6986 89.3907 40.7645 89.3183 40.8086C89.2458 40.8527 89.161 40.8728 89.0755 40.8662C88.9899 40.8597 88.9079 40.8267 88.8407 40.7718C88.7734 40.717 88.7243 40.643 88.7 40.56L88.44 39.64C88.4229 39.5797 88.3928 39.5239 88.3518 39.4765C88.3108 39.429 88.26 39.3911 88.2028 39.3654C88.1457 39.3397 88.0836 39.3268 88.0209 39.3275C87.9582 39.3283 87.8965 39.3428 87.84 39.37L86.87 39.86C86.3834 40.1 85.88 40.1467 85.36 40C83.1734 39.3933 80.9367 39.2533 78.65 39.58C78.4794 39.606 78.3236 39.6915 78.2101 39.8215C78.0966 39.9515 78.0328 40.1175 78.03 40.29L77.98 44.56C77.9734 44.96 78.17 45.16 78.57 45.16L81.94 45.15C82.0175 45.1501 82.0941 45.1344 82.1653 45.1039C82.2365 45.0734 82.3007 45.0287 82.3541 44.9726C82.4074 44.9164 82.4487 44.85 82.4756 44.7774C82.5024 44.7047 82.5141 44.6273 82.51 44.55L82.48 44.14C82.4534 43.6733 82.2167 43.5067 81.77 43.64C81.2233 43.8067 80.7067 43.83 80.22 43.71C80.1672 43.6983 80.1208 43.6686 80.0889 43.6259C80.057 43.5831 80.0415 43.53 80.045 43.4757C80.0486 43.4214 80.0709 43.3691 80.1083 43.328C80.1457 43.2868 80.1958 43.2592 80.25 43.25Z" stroke="#84799F" stroke-width="2"/>
<path d="M101.14 43.47C101.089 43.4451 101.045 43.407 101.013 43.3595C100.982 43.312 100.963 43.2569 100.96 43.2L100.78 39.84C100.775 39.7586 100.739 39.6823 100.68 39.6265C100.62 39.5708 100.542 39.5398 100.46 39.54L93.4 39.56C93.3185 39.5598 93.24 39.5908 93.1806 39.6465C93.1211 39.7023 93.0851 39.7786 93.08 39.86L92.78 44.79C92.7773 44.8337 92.7836 44.8774 92.7984 44.9186C92.8133 44.9597 92.8364 44.9974 92.8664 45.0293C92.8964 45.0612 92.9326 45.0865 92.9728 45.1039C93.013 45.1212 93.0563 45.1301 93.1 45.13L103.01 45.09C103.08 45.0869 103.147 45.061 103.2 45.0164C103.254 44.9719 103.291 44.911 103.307 44.843C103.323 44.7751 103.316 44.7038 103.288 44.6401C103.26 44.5763 103.211 44.5236 103.15 44.49L101.14 43.47Z" stroke="#84799F" stroke-width="2"/>
<path d="M106 43.49C105.991 43.3577 106.033 43.2271 106.118 43.1248C106.202 43.0225 106.322 42.9563 106.454 42.9397C106.585 42.9231 106.718 42.9574 106.825 43.0355C106.932 43.1136 107.006 43.2297 107.03 43.36L107.31 44.68C107.383 45.0267 107.597 45.1967 107.95 45.19L109.61 45.17C109.7 45.1675 109.787 45.141 109.863 45.0932C109.938 45.0454 110 44.9781 110.041 44.8984C110.082 44.8187 110.1 44.7294 110.095 44.64C110.09 44.5506 110.06 44.4642 110.01 44.39C109.203 43.23 109.033 41.96 109.5 40.58C109.532 40.4831 109.542 40.3803 109.529 40.2791C109.515 40.178 109.48 40.081 109.424 39.9956C109.368 39.9101 109.294 39.8383 109.207 39.7854C109.12 39.7325 109.022 39.6999 108.92 39.69L104.71 39.32C104.177 39.2734 103.907 39.5167 103.9 40.05L103.84 44.38C103.839 44.6518 103.941 44.9129 104.126 45.1108C104.311 45.3087 104.564 45.4286 104.835 45.4463C105.107 45.4641 105.376 45.3784 105.588 45.2065C105.801 45.0346 105.941 44.7893 105.98 44.52C106.007 44.3134 106.013 43.97 106 43.49Z" stroke="#84799F" stroke-width="2"/>
<path d="M113.06 40.43C112.647 39.6433 111.953 39.3066 110.98 39.42C110.493 39.48 110.393 39.71 110.68 40.11C111.707 41.5366 112.283 42.9333 112.41 44.3C112.45 44.6114 112.606 44.8962 112.847 45.0969C113.088 45.2977 113.397 45.3994 113.71 45.3817C114.024 45.3639 114.319 45.2279 114.536 45.0012C114.753 44.7745 114.876 44.4739 114.88 44.16C114.847 42.64 115.363 41.2966 116.43 40.13C116.494 40.0585 116.537 39.9704 116.553 39.8758C116.57 39.7811 116.559 39.6838 116.522 39.595C116.486 39.5061 116.425 39.4295 116.347 39.3737C116.268 39.318 116.176 39.2855 116.08 39.28C115.047 39.2133 114.333 39.59 113.94 40.41C113.902 40.4932 113.841 40.5641 113.764 40.6143C113.687 40.6646 113.598 40.6924 113.506 40.6945C113.415 40.6966 113.324 40.6729 113.245 40.6261C113.166 40.5794 113.102 40.5114 113.06 40.43Z" stroke="#84799F" stroke-width="2"/>
<path d="M73.95 44.93L76.24 45.27C76.2755 45.2757 76.3118 45.2742 76.3468 45.2656C76.3817 45.2571 76.4145 45.2416 76.4434 45.2202C76.4723 45.1988 76.4966 45.1718 76.5149 45.1409C76.5332 45.1099 76.5452 45.0756 76.55 45.04L77.05 41.72C77.1325 41.1668 77.1304 40.6244 77.0441 40.2119C76.9579 39.7993 76.7945 39.5505 76.59 39.52L75.3 39.33C75.0958 39.3017 74.8675 39.493 74.6651 39.8622C74.4627 40.2314 74.3027 40.7483 74.22 41.3L73.72 44.62C73.7144 44.6555 73.7159 44.6918 73.7244 44.7267C73.733 44.7617 73.7484 44.7945 73.7698 44.8234C73.7913 44.8523 73.8182 44.8766 73.8492 44.8949C73.8801 44.9132 73.9144 44.9251 73.95 44.93Z" stroke="#84799F" stroke-width="2"/>
<path d="M70.43 138.74L70.24 139.38C70.12 139.793 70.2734 140.027 70.7 140.08C70.8734 140.107 71.0434 140.097 71.21 140.05C71.39 140.003 71.4634 139.89 71.43 139.71L70.68 135.28C70.6334 134.98 70.5367 134.963 70.39 135.23C69.8834 136.163 69.87 137.08 70.35 137.98C70.4834 138.227 70.51 138.48 70.43 138.74Z" stroke="#706E7D" stroke-width="2"/>
<path d="M112.29 143.44L109.1 142.08C108.948 142.016 108.777 142.011 108.623 142.067C108.469 142.122 108.343 142.234 108.27 142.38L107.97 142.99C107.917 143.101 107.831 143.193 107.722 143.254C107.612 143.315 107.486 143.341 107.36 143.33L105.25 143.12C105.047 143.102 104.845 143.162 104.685 143.286C104.525 143.411 104.42 143.591 104.39 143.79C104.183 145.203 103.6 146.42 102.64 147.44C102.551 147.534 102.493 147.652 102.471 147.778C102.45 147.905 102.467 148.034 102.52 148.15L104.42 152.24C104.477 152.363 104.575 152.463 104.697 152.521C104.819 152.58 104.958 152.593 105.09 152.56L106.64 152.18C106.993 152.093 107.307 152.173 107.58 152.42L108.5 153.26C108.773 153.513 109.05 153.513 109.33 153.26L112.68 150.18C112.913 149.96 113.06 149.697 113.12 149.39C113.56 147.137 113.473 145.087 112.86 143.24" stroke="#D6DBEE" stroke-width="2"/>
<path d="M112.86 143.24L113.18 143.18C113.36 143.14 113.483 143.033 113.55 142.86L115.8 137.26C115.846 137.147 115.854 137.023 115.821 136.906C115.789 136.788 115.719 136.685 115.622 136.612C115.525 136.539 115.406 136.5 115.285 136.502C115.163 136.503 115.045 136.545 114.95 136.62C114.39 137.047 114.23 137.567 114.47 138.18C114.65 138.64 114.507 138.947 114.04 139.1C113.473 139.28 113.33 139.643 113.61 140.19C113.646 140.262 113.668 140.341 113.672 140.422C113.677 140.503 113.665 140.584 113.636 140.66C113.608 140.736 113.565 140.806 113.509 140.864C113.452 140.923 113.385 140.969 113.31 141C111.997 141.553 111.657 142.367 112.29 143.44" stroke="#706E7D" stroke-width="2"/>
<path d="M112.86 143.24C112.367 143.193 112.177 143.26 112.29 143.44" stroke="#8A8589" stroke-width="2"/>
<path d="M71.2301 142.71C69.3001 143.42 69.92 145.83 69.03 147.55C68.8834 147.837 68.9001 148.113 69.0801 148.38L70.9101 150.98C71.0834 151.227 71.3167 151.373 71.6101 151.42C74.9634 152.02 77.0334 151.413 77.82 149.6" stroke="#D6DBEE" stroke-width="2"/>
<path d="M77.8199 149.6C78.2733 150.327 78.7766 150.677 79.3299 150.65C79.4114 150.646 79.491 150.624 79.5632 150.587C79.6354 150.549 79.6984 150.496 79.7479 150.431C79.7975 150.366 79.8322 150.291 79.8499 150.212C79.8675 150.132 79.8675 150.05 79.8499 149.97L79.7599 149.58C79.6866 149.253 79.4799 149.1 79.1399 149.12L78.4499 149.16" stroke="#706E7D" stroke-width="2"/>
<path d="M78.45 149.16C79.2033 148.673 79.3733 148.05 78.96 147.29C78.24 145.977 77.7933 144.837 77.62 143.87C77.5666 143.55 77.3966 143.313 77.11 143.16C75.5566 142.347 73.9633 142.053 72.33 142.28" stroke="#D6DBEE" stroke-width="2"/>
<path d="M72.33 142.28C72.45 141.9 72.3567 141.52 72.05 141.14C71.9431 141.009 71.7992 140.913 71.637 140.864C71.4748 140.816 71.3015 140.818 71.1394 140.87C70.9772 140.921 70.8336 141.02 70.7268 141.154C70.62 141.287 70.555 141.45 70.54 141.62C70.5067 141.987 70.7367 142.35 71.23 142.71" stroke="#706E7D" stroke-width="2"/>
<path d="M72.33 142.28C72.11 142.627 71.7433 142.77 71.23 142.71" stroke="#8A8589" stroke-width="2"/>
<path d="M78.4499 149.16C78.4299 149.293 78.2199 149.44 77.8199 149.6" stroke="#8A8589" stroke-width="2"/>
<path d="M85.78 150.7L84.51 150.56C84.2631 150.516 84.0279 150.574 83.8561 150.72C83.6843 150.867 83.59 151.09 83.594 151.34C83.598 151.591 83.6999 151.849 83.8773 152.057C84.0547 152.265 84.2931 152.406 84.54 152.45C84.7134 152.49 85.03 152.397 85.49 152.17" stroke="#706E7D" stroke-width="2"/>
<path d="M85.49 152.17C87.09 155.597 89.6133 156.86 93.06 155.96C93.3933 155.873 93.6467 155.683 93.82 155.39L95.78 152.2C95.8719 152.051 95.9238 151.879 95.9308 151.703C95.9378 151.526 95.8997 151.35 95.82 151.19L95.52 150.63C95.38 150.35 95.3633 150.063 95.47 149.77C95.7967 148.883 95.6967 148.18 95.17 147.66C94.89 147.387 94.37 147.203 93.61 147.11C92.9033 147.03 92.21 146.893 91.53 146.7C91.2033 146.607 90.8833 146.623 90.57 146.75C88.37 147.65 86.7733 148.967 85.78 150.7" stroke="#D6DBEE" stroke-width="2"/>
<path d="M85.49 152.17C86.0033 151.677 86.1 151.187 85.78 150.7" stroke="#8A8589" stroke-width="2"/>
<path d="M82.0499 151.67C82.5966 151.17 82.7699 150.58 82.5699 149.9C82.5222 149.704 82.3985 149.534 82.2259 149.429C82.0534 149.324 81.8462 149.292 81.6499 149.34C81.4537 149.388 81.2844 149.511 81.1794 149.684C81.0744 149.857 81.0422 150.064 81.0899 150.26L81.3099 151.42C81.3252 151.498 81.3608 151.57 81.413 151.63C81.4653 151.689 81.5324 151.734 81.6075 151.76C81.6826 151.785 81.763 151.79 81.8407 151.774C81.9184 151.759 81.9906 151.723 82.0499 151.67Z" stroke="#706E7D" stroke-width="2"/>
<path d="M101.874 150.562C101.94 150.358 101.908 150.131 101.785 149.931C101.662 149.732 101.459 149.577 101.219 149.499C101.1 149.461 100.976 149.443 100.854 149.446C100.732 149.449 100.614 149.474 100.507 149.518C100.4 149.563 100.306 149.626 100.23 149.705C100.154 149.784 100.099 149.877 100.066 149.978C100 150.182 100.032 150.409 100.155 150.609C100.278 150.808 100.481 150.963 100.721 151.041C100.84 151.079 100.964 151.097 101.086 151.094C101.208 151.091 101.326 151.066 101.433 151.022C101.54 150.977 101.634 150.914 101.71 150.835C101.786 150.756 101.841 150.663 101.874 150.562Z" stroke="#706E7D" stroke-width="2"/>
<path d="M98.1624 151.73C98.345 151.561 98.4399 151.311 98.426 151.038C98.4122 150.764 98.2908 150.488 98.0886 150.27C97.9885 150.162 97.8715 150.072 97.7444 150.005C97.6173 149.937 97.4825 149.894 97.3478 149.877C97.2131 149.861 97.081 149.871 96.9591 149.907C96.8373 149.944 96.728 150.006 96.6376 150.09C96.455 150.259 96.3602 150.508 96.374 150.782C96.3878 151.056 96.5092 151.332 96.7114 151.55C96.8115 151.658 96.9285 151.748 97.0556 151.815C97.1827 151.883 97.3175 151.926 97.4522 151.943C97.5869 151.959 97.719 151.949 97.8409 151.913C97.9627 151.876 98.072 151.814 98.1624 151.73Z" stroke="#706E7D" stroke-width="2"/>
<path d="M96.84 32.97C96.62 33.4633 96.7634 33.61 97.27 33.41C97.9167 33.1567 98.1567 32.66 97.99 31.92C97.83 31.2267 97.61 31.2033 97.33 31.85L96.84 32.97Z" stroke="#84799F" stroke-width="2"/>
<path d="M103.65 32.11C103.715 32.383 103.769 32.6831 103.914 32.9233C103.976 33.0261 104.075 33.1017 104.21 33.15C104.267 33.1703 104.327 33.1758 104.387 33.1658C104.446 33.1559 104.502 33.1309 104.55 33.0932C104.597 33.0554 104.635 33.0061 104.66 32.9496C104.684 32.8932 104.695 32.8314 104.69 32.77C104.657 32.2966 104.42 31.98 103.98 31.82C103.687 31.7133 103.577 31.81 103.65 32.11V32.11Z" stroke="#84799F" stroke-width="2"/>
<path d="M71.9734 31.9295C72.0368 31.804 72.0393 31.6542 71.9803 31.5131C71.9214 31.372 71.8058 31.251 71.659 31.1769C71.5864 31.1402 71.5082 31.1161 71.4291 31.1059C71.3499 31.0958 71.2713 31.0998 71.1977 31.1178C71.1241 31.1358 71.057 31.1673 71.0002 31.2107C70.9434 31.254 70.898 31.3083 70.8667 31.3705C70.8033 31.4959 70.8008 31.6457 70.8598 31.7869C70.9187 31.928 71.0343 32.0489 71.1811 32.1231C71.2537 32.1598 71.3319 32.1839 71.411 32.1941C71.4902 32.2042 71.5688 32.2002 71.6424 32.1822C71.716 32.1642 71.7831 32.1326 71.8399 32.0893C71.8967 32.0459 71.9421 31.9916 71.9734 31.9295Z" stroke="#84799F" stroke-width="2"/>
<path d="M63.81 50.68C60.2567 49.4133 57.15 47.47 54.49 44.85C52.52 42.91 48.39 43.13 49.06 46.51C49.75 50.06 52.26 58.26 55.52 60.85C55.6538 60.9589 55.811 61.0354 55.9793 61.0736C56.1475 61.1117 56.3223 61.1105 56.49 61.07C60.3433 60.13 63.5933 58.1867 66.24 55.24C66.3568 55.1109 66.4455 54.9598 66.5006 54.7962C66.5557 54.6327 66.5759 54.4603 66.56 54.29C66.4 52.4833 65.4833 51.28 63.81 50.68Z" stroke="#87726C" stroke-width="2"/>
<path d="M131.73 47.64C129.49 49.05 127.18 49.32 124.99 51.29C124.802 51.4596 124.649 51.665 124.541 51.8941C124.433 52.1233 124.371 52.3717 124.36 52.6249C124.349 52.878 124.388 53.1308 124.476 53.3686C124.563 53.6064 124.697 53.8245 124.87 54.01C126.5 55.77 130.81 59.69 133.28 57.83C136.747 55.2167 138.57 51.65 138.75 47.13C138.777 46.4033 138.607 45.85 138.24 45.47C136.38 43.53 133.34 46.62 131.73 47.64Z" stroke="#87726C" stroke-width="2"/>
<path d="M73.23 128.75C73.2433 129.657 73.3233 130.31 73.47 130.71C76.3633 138.537 81.62 142.87 89.24 143.71C95.7 144.43 101.72 143.73 106.36 139.04C109.41 135.96 112.04 133.29 110.86 128.99" stroke="#87726C" stroke-width="2"/>
<path d="M110.86 128.99C113.11 128.43 118.25 125.2 116.46 122.3C113.2 117.04 106.01 108.6 103.67 100.19C101.63 92.83 108.03 89.15 114.12 92.09C115.393 92.71 116.913 94.2134 118.68 96.6C122.607 101.92 126.537 107.24 130.47 112.56C131.15 113.487 132.4 113.98 134.22 114.04C134.547 114.053 134.843 113.96 135.11 113.76C139.883 110.12 143.933 105.773 147.26 100.72C149.03 98.03 147.71 96.09 144.89 95.26C140.81 94.07 134.71 93.32 132.54 88.79C131.23 86.05 131.78 81.75 131.68 78.49C131.665 78.0539 131.542 77.6283 131.322 77.2514C131.102 76.8744 130.792 76.5579 130.42 76.33C123.88 72.36 114.82 77.21 110.37 82.09C108.5 84.14 104.76 91.38 101.26 89.68C99.8533 89 99.14 88.02 99.12 86.74C99.0533 82.22 97.3466 78.9334 94 76.88C93.6733 76.68 93.3333 76.64 92.98 76.76C88.4 78.31 87.55 82.11 86.89 87.08C86.8692 87.2167 86.8128 87.3453 86.7267 87.4525C86.6406 87.5596 86.5279 87.6416 86.4 87.69C84.2 88.5234 82.4933 88.1834 81.28 86.67C76.5066 80.7167 71.0233 76.5934 64.83 74.3C61.06 72.9 57.9 72.75 55.51 76.25C53.25 79.57 56.26 84.34 53.1 87.22C48.81 91.13 35.43 90.64 39.59 100.11C41.3166 104.03 43.5833 107.817 46.39 111.47C46.7152 111.894 47.1897 112.18 47.7182 112.269C48.2467 112.358 48.7903 112.244 49.24 111.95C55.64 107.75 59.93 100.89 65.45 95.26C70.05 90.56 82.97 88.24 81.54 99.24C80.51 107.15 72.9 114.96 68.12 121.17C67.1933 122.383 66.7466 124.07 66.78 126.23C66.7797 126.385 66.8167 126.538 66.888 126.677C66.9592 126.816 67.0627 126.937 67.19 127.03C68.8033 128.197 70.8166 128.77 73.23 128.75" stroke="#6E504D" stroke-width="2"/>
<path d="M110.86 128.99C108.56 121.65 103.77 115.91 95.82 114.89C84.2666 113.403 76.7366 118.023 73.23 128.75" stroke="#D1ABA1" stroke-width="2"/>
<path d="M76.7856 95.7606C75.9418 94.843 74.7317 94.3317 73.4214 94.3392C72.1111 94.3466 70.808 94.8722 69.7987 95.8003C68.7893 96.7284 68.1566 97.983 68.0395 99.2881C67.9224 100.593 68.3306 101.842 69.1744 102.759C70.0181 103.677 71.2282 104.188 72.5385 104.181C73.8488 104.173 75.1519 103.648 76.1613 102.72C77.1706 101.792 77.8034 100.537 77.9204 99.2319C78.0375 97.9268 77.6293 96.6782 76.7856 95.7606Z" stroke="#747B81" stroke-width="2"/>
<path d="M116.365 96.3625C115.431 95.3847 114.113 94.8501 112.701 94.8764C111.289 94.9027 109.899 95.4878 108.837 96.5029C107.774 97.518 107.127 98.88 107.036 100.289C106.946 101.699 107.42 103.04 108.355 104.018C109.289 104.995 110.607 105.53 112.019 105.504C113.431 105.477 114.821 104.892 115.883 103.877C116.946 102.862 117.593 101.5 117.684 100.091C117.774 98.6815 117.3 97.3404 116.365 96.3625Z" stroke="#747B81" stroke-width="2"/>
<path d="M80.81 41.54C80.9833 41.3733 80.9533 41.25 80.72 41.17L80.36 41.06C80.2984 41.0405 80.2329 41.0371 80.1696 41.05C80.1063 41.063 80.0473 41.0918 79.9983 41.1338C79.9493 41.1759 79.9117 41.2297 79.8893 41.2903C79.8668 41.3508 79.8602 41.4161 79.87 41.48C79.9567 42.0533 80.27 42.0733 80.81 41.54Z" stroke="#84799F" stroke-width="2"/>
<path d="M96.6501 41.68L96.8501 42.48C96.9434 42.8466 96.8101 43.09 96.4501 43.21C96.2301 43.2766 96.0034 43.3366 95.7701 43.39C95.2967 43.5033 95.2901 43.6366 95.7501 43.79L97.6501 44.41C97.7453 44.4425 97.8469 44.4514 97.9463 44.4358C98.0457 44.4203 98.1398 44.3808 98.2206 44.3207C98.3013 44.2607 98.3662 44.1819 98.4096 44.0912C98.4531 44.0004 98.4738 43.9005 98.4701 43.8L98.3701 40.54C98.3648 40.4214 98.3199 40.3081 98.2425 40.2181C98.1652 40.1281 98.0599 40.0667 97.9435 40.0437C97.8272 40.0206 97.7064 40.0373 97.6006 40.091C97.4948 40.1447 97.4101 40.2324 97.3601 40.34C97.0401 41.0533 96.5067 41.3966 95.7601 41.37C95.2334 41.35 95.2234 41.4233 95.7301 41.59C95.8834 41.6366 96.0534 41.6066 96.2401 41.5C96.4534 41.3866 96.5901 41.4466 96.6501 41.68Z" stroke="#84799F" stroke-width="2"/>
<path d="M106.705 41.7933C106.772 41.76 106.831 41.7122 106.878 41.6527C106.926 41.5931 106.961 41.5229 106.982 41.4462C107.003 41.3694 107.009 41.2875 107.001 41.2052C106.992 41.123 106.968 41.0419 106.931 40.9666C106.893 40.8913 106.843 40.8233 106.783 40.7664C106.723 40.7096 106.654 40.6651 106.58 40.6354C106.506 40.6057 106.429 40.5914 106.352 40.5933C106.276 40.5953 106.202 40.6134 106.135 40.6467C106.068 40.68 106.009 40.7277 105.962 40.7873C105.914 40.8469 105.879 40.917 105.858 40.9938C105.837 41.0706 105.83 41.1524 105.839 41.2347C105.848 41.317 105.872 41.3981 105.909 41.4734C105.947 41.5487 105.997 41.6167 106.057 41.6735C106.117 41.7303 106.186 41.7749 106.26 41.8046C106.334 41.8343 106.411 41.8486 106.488 41.8466C106.564 41.8447 106.638 41.8266 106.705 41.7933Z" stroke="#84799F" stroke-width="2"/>
<path d="M74.82 98.89C74.82 98.4126 74.6303 97.9547 74.2928 97.6172C73.9552 97.2796 73.4974 97.09 73.02 97.09C72.5426 97.09 72.0847 97.2796 71.7472 97.6172C71.4096 97.9547 71.22 98.4126 71.22 98.89C71.22 99.3674 71.4096 99.8252 71.7472 100.163C72.0847 100.5 72.5426 100.69 73.02 100.69C73.4974 100.69 73.9552 100.5 74.2928 100.163C74.6303 99.8252 74.82 99.3674 74.82 98.89Z" stroke="#747B81" stroke-width="2"/>
<path d="M114.02 99.66C114.02 99.1853 113.831 98.73 113.496 98.3943C113.16 98.0586 112.705 97.87 112.23 97.87C111.755 97.87 111.3 98.0586 110.964 98.3943C110.629 98.73 110.44 99.1853 110.44 99.66C110.44 100.135 110.629 100.59 110.964 100.926C111.3 101.261 111.755 101.45 112.23 101.45C112.705 101.45 113.16 101.261 113.496 100.926C113.831 100.59 114.02 100.135 114.02 99.66Z" stroke="#747B81" stroke-width="2"/>
<path d="M86.4299 126.41C87.2033 128.29 88.3966 129.933 90.0099 131.34C90.3427 131.63 90.7679 131.793 91.2094 131.798C91.651 131.804 92.0801 131.652 92.4199 131.37C94.3199 129.77 95.7266 127.8 96.6399 125.46C96.8207 124.995 96.8145 124.478 96.6227 124.016C96.4309 123.554 96.0682 123.183 95.6099 122.98C93.4233 122.027 90.8866 121.92 87.9999 122.66C86.1266 123.14 85.6033 124.39 86.4299 126.41Z" stroke="#87726C" stroke-width="2"/>
<path d="M110.56 147.9C110.56 147.258 110.305 146.643 109.851 146.189C109.397 145.735 108.782 145.48 108.14 145.48C107.498 145.48 106.883 145.735 106.429 146.189C105.975 146.643 105.72 147.258 105.72 147.9C105.72 148.542 105.975 149.157 106.429 149.611C106.883 150.065 107.498 150.32 108.14 150.32C108.782 150.32 109.397 150.065 109.851 149.611C110.305 149.157 110.56 148.542 110.56 147.9Z" stroke="#9E90AB" stroke-width="2"/>
<path d="M75.86 147.06C75.86 146.516 75.644 145.995 75.2596 145.61C74.8751 145.226 74.3537 145.01 73.81 145.01C73.2663 145.01 72.7449 145.226 72.3604 145.61C71.976 145.995 71.76 146.516 71.76 147.06C71.76 147.604 71.976 148.125 72.3604 148.51C72.7449 148.894 73.2663 149.11 73.81 149.11C74.3537 149.11 74.8751 148.894 75.2596 148.51C75.644 148.125 75.86 147.604 75.86 147.06Z" stroke="#8A8589" stroke-width="2"/>
<path d="M88.86 152.52C90.0533 155.14 91.2933 155.373 92.58 153.22" stroke="#D6DBEE" stroke-width="2"/>
<path d="M92.58 153.22C92.92 152.18 92.9667 151.34 92.72 150.7C92.4467 150.007 91.8367 149.673 90.89 149.7C89.4767 149.74 88.8 150.68 88.86 152.52" stroke="#8A8589" stroke-width="2"/>
<path d="M92.58 153.22C91.0733 153.34 89.8333 153.107 88.86 152.52" stroke="#706E7D" stroke-width="2"/>
</svg>
