<?xml version="1.0" encoding="UTF-8" standalone="no"?>
<!DOCTYPE svg PUBLIC "-//W3C//DTD SVG 1.1//EN" "http://www.w3.org/Graphics/SVG/1.1/DTD/svg11.dtd">
<svg xmlns="http://www.w3.org/2000/svg" version="1.1" viewBox="0.00 0.00 189.00 190.00">
<g stroke-width="2.00" fill="none" stroke-linecap="butt">
<path stroke="#67596c" vector-effect="non-scaling-stroke" d="
  M 189.00 91.04
  Q 187.28 57.77 166.43 33.58
  C 130.45 -8.17 65.45 -10.09 27.09 29.72
  C -20.63 79.25 0.40 162.52 65.56 183.46
  C 92.03 191.96 121.78 188.62 145.33 173.47
  Q 185.23 147.79 189.00 98.08"
/>
<path stroke="#c5bbdd" vector-effect="non-scaling-stroke" d="
  M 76.25 167.38
  Q 87.25 169.61 94.98 168.94
  Q 95.86 168.86 98.99 168.86
  Q 103.41 168.86 108.64 167.91
  Q 113.28 167.07 117.94 165.29
  Q 132.58 159.71 144.54 149.43
  C 145.52 148.59 146.89 148.32 147.81 147.20
  Q 149.15 145.56 149.23 145.48
  Q 154.17 140.65 158.76 133.38
  Q 164.14 124.87 165.72 119.50
  Q 168.40 110.41 169.61 105.01
  Q 172.37 92.70 169.57 79.86
  Q 168.63 75.59 165.86 66.50
  Q 164.01 60.46 161.30 55.70
  C 156.32 46.96 150.53 38.62 142.52 32.41
  Q 137.62 28.60 133.47 25.83
  Q 128.78 22.71 123.47 20.66
  Q 122.90 20.44 121.94 19.80
  C 120.63 18.92 118.87 18.89 117.77 18.36
  C 116.70 17.85 115.31 16.99 114.16 16.78
  Q 109.86 15.98 105.84 14.33
  Q 104.06 13.59 102.54 13.52
  C 99.62 13.38 96.73 13.62 93.92 13.38
  Q 86.79 12.77 81.26 13.63
  Q 75.25 14.57 65.76 17.66
  Q 59.78 19.60 49.98 25.59
  Q 42.83 29.95 33.54 39.54
  C 31.47 41.68 30.79 44.12 29.66 45.83
  Q 23.69 54.97 18.20 68.28
  Q 14.11 78.22 13.56 87.38
  Q 13.40 90.00 14.08 94.57
  Q 14.61 98.14 14.87 101.75
  Q 15.74 114.07 21.39 124.82
  Q 22.36 126.67 25.14 130.29
  C 26.82 132.48 28.21 135.57 30.10 137.48
  Q 30.86 138.24 31.34 139.20
  Q 32.33 141.16 32.88 141.79
  Q 39.51 149.25 47.54 155.19
  C 48.52 155.92 49.79 156.12 50.76 156.74
  Q 60.96 163.16 72.66 166.08
  Q 73.14 166.20 73.55 166.47
  Q 74.35 167.00 76.25 167.38"
/>
<path stroke="#84799f" vector-effect="non-scaling-stroke" d="
  M 91.40 32.11
  Q 92.05 31.98 92.71 32.12
  A 0.76 0.75 14.4 0 0 93.60 31.60
  L 93.89 30.65
  Q 94.05 30.12 93.51 29.98
  C 86.99 28.35 87.58 37.33 93.49 35.42
  Q 93.97 35.26 93.90 34.77
  Q 93.59 32.69 91.49 32.79
  A 0.35 0.34 37.8 0 1 91.40 32.11"
/>
<path stroke="#84799f" vector-effect="non-scaling-stroke" d="
  M 100.52 32.70
  A 2.91 2.91 0.0 0 0 97.61 29.79
  A 2.91 2.91 0.0 0 0 94.70 32.70
  A 2.91 2.91 0.0 0 0 97.61 35.61
  A 2.91 2.91 0.0 0 0 100.52 32.70"
/>
<path stroke="#84799f" vector-effect="non-scaling-stroke" d="
  M 107.16 32.70
  A 2.92 2.92 0.0 0 0 104.24 29.78
  A 2.92 2.92 0.0 0 0 101.32 32.70
  A 2.92 2.92 0.0 0 0 104.24 35.62
  A 2.92 2.92 0.0 0 0 107.16 32.70"
/>
<path stroke="#84799f" vector-effect="non-scaling-stroke" d="
  M 110.88 34.50
  Q 111.50 35.91 113.06 35.70
  A 1.08 1.07 85.3 0 0 113.98 34.60
  L 113.84 30.57
  Q 113.82 30.09 113.36 29.93
  Q 111.69 29.36 110.89 30.82
  Q 110.52 31.49 110.20 30.80
  Q 109.73 29.79 108.62 29.89
  A 0.60 0.59 88.4 0 0 108.07 30.48
  L 108.01 35.01
  A 0.54 0.54 0.0 0 0 108.41 35.53
  Q 110.00 35.95 110.36 34.54
  Q 110.56 33.77 110.88 34.50"
/>
<path stroke="#84799f" vector-effect="non-scaling-stroke" d="
  M 71.74 33.98
  L 72.12 35.00
  A 0.80 0.79 84.6 0 0 72.72 35.50
  Q 75.72 35.99 78.20 34.55
  Q 78.65 34.29 79.04 34.63
  Q 80.12 35.61 81.63 35.54
  Q 82.28 35.51 82.06 34.90
  L 80.51 30.61
  Q 80.32 30.09 79.77 30.00
  Q 75.57 29.28 75.65 33.30
  Q 75.66 33.75 75.31 34.06
  L 74.74 34.55
  A 0.54 0.54 0.0 0 1 73.85 34.11
  L 74.05 30.80
  A 0.77 0.76 -87.9 0 0 73.30 29.98
  L 69.18 29.92
  A 0.66 0.65 0.9 0 0 68.50 30.57
  L 68.50 34.90
  A 0.66 0.66 0.0 0 0 69.14 35.56
  L 70.22 35.58
  Q 70.81 35.60 70.90 35.02
  L 71.06 34.05
  A 0.35 0.35 0.0 0 1 71.74 33.98"
/>
<path stroke="#84799f" vector-effect="non-scaling-stroke" d="
  M 85.94 32.20
  Q 87.47 32.17 88.00 30.80
  A 0.46 0.46 0.0 0 0 87.74 30.21
  C 81.40 27.60 81.10 37.60 87.57 35.33
  Q 88.07 35.15 87.94 34.64
  L 87.67 33.57
  A 0.72 0.72 0.0 0 0 87.00 33.02
  L 85.94 32.98
  A 0.39 0.39 0.0 0 1 85.94 32.20"
/>
<path stroke="#84799f" vector-effect="non-scaling-stroke" d="
  M 114.83 30.58
  Q 114.62 31.39 115.00 32.04
  A 1.05 1.05 0.0 0 0 116.92 31.77
  Q 117.36 30.06 115.75 29.93
  A 0.88 0.88 0.0 0 0 114.83 30.58"
/>
<path stroke="#84799f" vector-effect="non-scaling-stroke" d="
  M 120.95 31.15
  Q 121.71 31.56 121.82 31.50
  A 0.90 0.82 -58.9 0 0 121.50 29.86
  L 118.71 29.98
  Q 118.16 30.00 118.15 30.54
  L 118.10 32.47
  Q 118.09 33.08 118.70 33.12
  Q 119.53 33.16 119.84 33.88
  A 0.25 0.25 0.0 0 1 119.55 34.22
  L 118.47 33.98
  A 0.73 0.72 -30.3 0 0 118.10 35.38
  Q 120.02 35.95 122.05 35.34
  A 1.60 1.47 35.8 0 0 121.44 32.37
  Q 120.96 32.35 120.47 31.75
  A 0.39 0.39 0.0 0 1 120.95 31.15"
/>
<path stroke="#706e7d" vector-effect="non-scaling-stroke" d="
  M 115.70 135.06
  Q 121.49 134.77 127.19 133.77
  C 130.87 133.12 131.95 129.56 134.89 127.79
  Q 146.86 120.61 156.08 110.06
  Q 157.19 108.79 156.90 107.21
  Q 156.81 106.70 156.42 106.37
  Q 153.15 103.60 154.34 98.77
  Q 155.69 93.28 158.09 88.47
  A 1.88 1.87 -79.3 0 0 156.25 85.76
  C 146.21 86.67 136.93 85.59 135.60 73.48
  C 134.90 67.22 138.62 59.58 140.86 54.84
  C 142.51 51.36 144.89 42.63 140.21 40.54
  C 135.50 38.44 124.82 45.89 120.60 48.62
  C 117.68 50.51 114.06 51.33 111.00 50.55
  Q 93.78 46.21 76.67 50.68
  C 72.70 51.71 59.85 43.14 56.21 40.72
  C 50.41 36.84 44.45 41.63 46.23 48.02
  Q 48.47 56.12 51.44 64.02
  Q 54.73 72.79 48.49 80.48
  Q 44.44 85.47 37.41 85.30
  C 35.24 85.25 33.10 84.29 30.95 83.75
  A 1.35 1.34 4.5 0 0 29.28 85.17
  Q 29.92 92.37 31.41 98.78
  Q 32.31 102.60 29.49 105.05
  A 1.17 1.16 68.1 0 0 29.08 106.02
  Q 29.16 107.01 29.82 108.45
  Q 35.96 121.58 48.85 125.99
  A 0.48 0.44 77.0 0 1 49.07 126.14
  L 54.18 131.96
  A 0.73 0.69 70.4 0 0 54.61 132.18
  L 71.21 133.96
  Q 71.83 134.03 72.11 134.58
  C 74.08 138.50 76.55 141.82 80.67 143.62
  C 90.43 147.89 103.31 145.93 109.85 136.90
  C 111.33 134.85 113.10 134.40 115.26 135.57
  A 0.12 0.11 19.3 0 0 115.42 135.50
  Q 115.46 135.36 115.50 135.22
  A 0.22 0.22 0.0 0 1 115.70 135.06"
/>
<path stroke="#84799f" vector-effect="non-scaling-stroke" d="
  M 80.25 43.25
  L 81.09 43.14
  Q 81.85 43.04 81.71 42.29
  L 81.60 41.75
  A 0.97 0.97 0.0 0 1 83.31 40.95
  C 84.52 42.44 83.69 45.09 86.12 45.26
  Q 86.68 45.29 86.83 44.75
  L 87.13 43.62
  A 0.44 0.44 0.0 0 1 87.97 43.58
  L 88.36 44.63
  A 1.13 1.13 0.0 0 0 90.49 44.61
  L 91.93 40.40
  A 0.76 0.76 0.0 0 0 91.11 39.40
  Q 89.94 39.55 89.48 40.62
  A 0.42 0.41 49.3 0 1 88.70 40.56
  L 88.44 39.64
  A 0.43 0.43 0.0 0 0 87.84 39.37
  L 86.87 39.86
  Q 86.14 40.22 85.36 40.00
  Q 82.08 39.09 78.65 39.58
  A 0.73 0.73 0.0 0 0 78.03 40.29
  L 77.98 44.56
  Q 77.97 45.16 78.57 45.16
  L 81.94 45.15
  A 0.57 0.57 0.0 0 0 82.51 44.55
  L 82.48 44.14
  Q 82.44 43.44 81.77 43.64
  Q 80.95 43.89 80.22 43.71
  A 0.24 0.23 -41.4 0 1 80.25 43.25"
/>
<path stroke="#84799f" vector-effect="non-scaling-stroke" d="
  M 101.14 43.47
  A 0.32 0.32 0.0 0 1 100.96 43.20
  L 100.78 39.84
  A 0.32 0.32 0.0 0 0 100.46 39.54
  L 93.40 39.56
  A 0.32 0.32 0.0 0 0 93.08 39.86
  L 92.78 44.79
  A 0.32 0.32 0.0 0 0 93.10 45.13
  L 103.01 45.09
  A 0.32 0.32 0.0 0 0 103.15 44.49
  L 101.14 43.47"
/>
<path stroke="#84799f" vector-effect="non-scaling-stroke" d="
  M 106.00 43.49
  A 0.52 0.52 0.0 0 1 107.03 43.36
  L 107.31 44.68
  Q 107.42 45.20 107.95 45.19
  L 109.61 45.17
  A 0.50 0.50 0.0 0 0 110.01 44.39
  Q 108.80 42.65 109.50 40.58
  A 0.68 0.68 0.0 0 0 108.92 39.69
  L 104.71 39.32
  Q 103.91 39.25 103.90 40.05
  L 103.84 44.38
  A 1.08 1.07 -41.2 0 0 105.98 44.52
  Q 106.02 44.21 106.00 43.49"
/>
<path stroke="#84799f" vector-effect="non-scaling-stroke" d="
  M 113.06 40.43
  Q 112.44 39.25 110.98 39.42
  Q 110.25 39.51 110.68 40.11
  Q 112.22 42.25 112.41 44.30
  A 1.24 1.24 0.0 0 0 114.88 44.16
  Q 114.83 41.88 116.43 40.13
  A 0.51 0.51 0.0 0 0 116.08 39.28
  Q 114.53 39.18 113.94 40.41
  A 0.49 0.49 0.0 0 1 113.06 40.43"
/>
<path stroke="#84799f" vector-effect="non-scaling-stroke" d="
  M 73.95 44.93
  L 76.24 45.27
  A 0.27 0.27 0.0 0 0 76.55 45.04
  L 77.05 41.72
  A 2.11 0.78 -81.5 0 0 76.59 39.52
  L 75.30 39.33
  A 2.11 0.78 -81.5 0 0 74.22 41.30
  L 73.72 44.62
  A 0.27 0.27 0.0 0 0 73.95 44.93"
/>
<path stroke="#706e7d" vector-effect="non-scaling-stroke" d="
  M 70.43 138.74
  L 70.24 139.38
  Q 70.06 140.00 70.70 140.08
  Q 70.96 140.12 71.21 140.05
  Q 71.48 139.98 71.43 139.71
  L 70.68 135.28
  Q 70.61 134.83 70.39 135.23
  Q 69.63 136.63 70.35 137.98
  Q 70.55 138.35 70.43 138.74"
/>
<path stroke="#d6dbee" vector-effect="non-scaling-stroke" d="
  M 112.29 143.44
  L 109.10 142.08
  A 0.65 0.64 24.9 0 0 108.27 142.38
  L 107.97 142.99
  A 0.62 0.60 15.1 0 1 107.36 143.33
  L 105.25 143.12
  A 0.80 0.79 6.9 0 0 104.39 143.79
  Q 104.08 145.91 102.64 147.44
  A 0.65 0.64 -36.1 0 0 102.52 148.15
  L 104.42 152.24
  A 0.58 0.58 0.0 0 0 105.09 152.56
  L 106.64 152.18
  Q 107.17 152.05 107.58 152.42
  L 108.50 153.26
  Q 108.91 153.64 109.33 153.26
  L 112.68 150.18
  Q 113.03 149.85 113.12 149.39
  Q 113.78 146.01 112.86 143.24"
/>
<path stroke="#706e7d" vector-effect="non-scaling-stroke" d="
  M 112.86 143.24
  L 113.18 143.18
  Q 113.45 143.12 113.55 142.86
  L 115.80 137.26
  A 0.55 0.55 0.0 0 0 114.95 136.62
  Q 114.11 137.26 114.47 138.18
  Q 114.74 138.87 114.04 139.10
  Q 113.19 139.37 113.61 140.19
  A 0.59 0.59 0.0 0 1 113.31 141.00
  Q 111.34 141.83 112.29 143.44"
/>
<path stroke="#8a8589" vector-effect="non-scaling-stroke" d="
  M 112.86 143.24
  Q 112.12 143.17 112.29 143.44"
/>
<path stroke="#d6dbee" vector-effect="non-scaling-stroke" d="
  M 71.23 142.71
  C 69.30 143.42 69.92 145.83 69.03 147.55
  Q 68.81 147.98 69.08 148.38
  L 70.91 150.98
  Q 71.17 151.35 71.61 151.42
  Q 76.64 152.32 77.82 149.60"
/>
<path stroke="#706e7d" vector-effect="non-scaling-stroke" d="
  M 77.82 149.60
  Q 78.50 150.69 79.33 150.65
  A 0.56 0.56 0.0 0 0 79.85 149.97
  L 79.76 149.58
  Q 79.65 149.09 79.14 149.12
  L 78.45 149.16"
/>
<path stroke="#d6dbee" vector-effect="non-scaling-stroke" d="
  M 78.45 149.16
  Q 79.58 148.43 78.96 147.29
  Q 77.88 145.32 77.62 143.87
  Q 77.54 143.39 77.11 143.16
  Q 74.78 141.94 72.33 142.28"
/>
<path stroke="#706e7d" vector-effect="non-scaling-stroke" d="
  M 72.33 142.28
  Q 72.51 141.71 72.05 141.14
  A 0.86 0.85 -62.5 0 0 70.54 141.62
  Q 70.49 142.17 71.23 142.71"
/>
<path stroke="#8a8589" vector-effect="non-scaling-stroke" d="
  M 72.33 142.28
  Q 72.00 142.80 71.23 142.71"
/>
<path stroke="#8a8589" vector-effect="non-scaling-stroke" d="
  M 78.45 149.16
  Q 78.42 149.36 77.82 149.60"
/>
<path stroke="#706e7d" vector-effect="non-scaling-stroke" d="
  M 85.78 150.70
  L 84.51 150.56
  A 1.03 0.85 49.5 0 0 84.54 152.45
  Q 84.80 152.51 85.49 152.17"
/>
<path stroke="#d6dbee" vector-effect="non-scaling-stroke" d="
  M 85.49 152.17
  Q 87.89 157.31 93.06 155.96
  Q 93.56 155.83 93.82 155.39
  L 95.78 152.20
  A 1.05 1.03 47.7 0 0 95.82 151.19
  L 95.52 150.63
  Q 95.31 150.21 95.47 149.77
  Q 95.96 148.44 95.17 147.66
  Q 94.75 147.25 93.61 147.11
  Q 92.55 146.99 91.53 146.70
  Q 91.04 146.56 90.57 146.75
  Q 87.27 148.10 85.78 150.70"
/>
<path stroke="#8a8589" vector-effect="non-scaling-stroke" d="
  M 85.49 152.17
  Q 86.26 151.43 85.78 150.70"
/>
<path stroke="#706e7d" vector-effect="non-scaling-stroke" d="
  M 82.05 151.67
  Q 82.87 150.92 82.57 149.90
  A 0.76 0.76 0.0 0 0 81.09 150.26
  L 81.31 151.42
  A 0.45 0.45 0.0 0 0 82.05 151.67"
/>
<path stroke="#706e7d" vector-effect="non-scaling-stroke" d="
  M 101.8740 150.5620
  A 0.95 0.81 17.9 0 0 101.2190 149.4992
  A 0.95 0.81 17.9 0 0 100.0660 149.9780
  A 0.95 0.81 17.9 0 0 100.7210 151.0408
  A 0.95 0.81 17.9 0 0 101.8740 150.5620"
/>
<path stroke="#706e7d" vector-effect="non-scaling-stroke" d="
  M 98.1624 151.7304
  A 1.12 0.94 47.1 0 0 98.0886 150.2701
  A 1.12 0.94 47.1 0 0 96.6376 150.0896
  A 1.12 0.94 47.1 0 0 96.7114 151.5499
  A 1.12 0.94 47.1 0 0 98.1624 151.7304"
/>
<path stroke="#84799f" vector-effect="non-scaling-stroke" d="
  M 96.84 32.97
  Q 96.51 33.71 97.27 33.41
  Q 98.24 33.03 97.99 31.92
  Q 97.75 30.88 97.33 31.85
  L 96.84 32.97"
/>
<path stroke="#84799f" vector-effect="non-scaling-stroke" d="
  M 103.84 32.50
  Q 103.79 33.00 104.21 33.15
  A 0.37 0.36 -83.2 0 0 104.69 32.77
  Q 104.64 32.06 103.98 31.82
  Q 103.54 31.66 103.65 32.11
  Q 103.70 32.32 103.84 32.50"
/>
<path stroke="#84799f" vector-effect="non-scaling-stroke" d="
  M 71.9734 31.9295
  A 0.62 0.53 26.8 0 0 71.6590 31.1769
  A 0.62 0.53 26.8 0 0 70.8666 31.3705
  A 0.62 0.53 26.8 0 0 71.1810 32.1231
  A 0.62 0.53 26.8 0 0 71.9734 31.9295"
/>
<path stroke="#87726c" vector-effect="non-scaling-stroke" d="
  M 63.81 50.68
  Q 58.48 48.78 54.49 44.85
  C 52.52 42.91 48.39 43.13 49.06 46.51
  C 49.75 50.06 52.26 58.26 55.52 60.85
  A 1.12 1.12 0.0 0 0 56.49 61.07
  Q 62.27 59.66 66.24 55.24
  A 1.26 1.23 -27.1 0 0 66.56 54.29
  Q 66.32 51.58 63.81 50.68"
/>
<path stroke="#87726c" vector-effect="non-scaling-stroke" d="
  M 131.73 47.64
  C 129.49 49.05 127.18 49.32 124.99 51.29
  A 1.91 1.91 0.0 0 0 124.87 54.01
  C 126.50 55.77 130.81 59.69 133.28 57.83
  Q 138.48 53.91 138.75 47.13
  Q 138.79 46.04 138.24 45.47
  C 136.38 43.53 133.34 46.62 131.73 47.64"
/>
<path stroke="#87726c" vector-effect="non-scaling-stroke" d="
  M 73.23 128.75
  Q 73.25 130.11 73.47 130.71
  Q 77.81 142.45 89.24 143.71
  C 95.70 144.43 101.72 143.73 106.36 139.04
  C 109.41 135.96 112.04 133.29 110.86 128.99"
/>
<path stroke="#6e504d" vector-effect="non-scaling-stroke" d="
  M 110.86 128.99
  C 113.11 128.43 118.25 125.20 116.46 122.30
  C 113.20 117.04 106.01 108.60 103.67 100.19
  C 101.63 92.83 108.03 89.15 114.12 92.09
  Q 116.03 93.02 118.68 96.60
  Q 124.57 104.58 130.47 112.56
  Q 131.49 113.95 134.22 114.04
  Q 134.71 114.06 135.11 113.76
  Q 142.27 108.30 147.26 100.72
  C 149.03 98.03 147.71 96.09 144.89 95.26
  C 140.81 94.07 134.71 93.32 132.54 88.79
  C 131.23 86.05 131.78 81.75 131.68 78.49
  A 2.64 2.64 0.0 0 0 130.42 76.33
  C 123.88 72.36 114.82 77.21 110.37 82.09
  C 108.50 84.14 104.76 91.38 101.26 89.68
  Q 99.15 88.66 99.12 86.74
  Q 99.02 79.96 94.00 76.88
  Q 93.51 76.58 92.98 76.76
  C 88.40 78.31 87.55 82.11 86.89 87.08
  A 0.78 0.77 84.2 0 1 86.40 87.69
  Q 83.10 88.94 81.28 86.67
  Q 74.12 77.74 64.83 74.30
  C 61.06 72.90 57.90 72.75 55.51 76.25
  C 53.25 79.57 56.26 84.34 53.10 87.22
  C 48.81 91.13 35.43 90.64 39.59 100.11
  Q 42.18 105.99 46.39 111.47
  A 2.13 2.12 -35.4 0 0 49.24 111.95
  C 55.64 107.75 59.93 100.89 65.45 95.26
  C 70.05 90.56 82.97 88.24 81.54 99.24
  C 80.51 107.15 72.90 114.96 68.12 121.17
  Q 66.73 122.99 66.78 126.23
  A 1.00 0.98 18.4 0 0 67.19 127.03
  Q 69.61 128.78 73.23 128.75"
/>
<path stroke="#d1aba1" vector-effect="non-scaling-stroke" d="
  M 110.86 128.99
  C 108.56 121.65 103.77 115.91 95.82 114.89
  Q 78.49 112.66 73.23 128.75"
/>
<path stroke="#747b81" vector-effect="non-scaling-stroke" d="
  M 76.7856 95.7606
  A 5.17 4.70 -42.6 0 0 69.7987 95.8003
  A 5.17 4.70 -42.6 0 0 69.1744 102.7594
  A 5.17 4.70 -42.6 0 0 76.1613 102.7197
  A 5.17 4.70 -42.6 0 0 76.7856 95.7606"
/>
<path stroke="#747b81" vector-effect="non-scaling-stroke" d="
  M 116.3652 96.3625
  A 5.54 5.10 -43.7 0 0 108.8365 96.5029
  A 5.54 5.10 -43.7 0 0 108.3548 104.0175
  A 5.54 5.10 -43.7 0 0 115.8835 103.8771
  A 5.54 5.10 -43.7 0 0 116.3652 96.3625"
/>
<path stroke="#84799f" vector-effect="non-scaling-stroke" d="
  M 80.81 41.54
  Q 81.07 41.29 80.72 41.17
  L 80.36 41.06
  A 0.38 0.38 0.0 0 0 79.87 41.48
  Q 80.00 42.34 80.81 41.54"
/>
<path stroke="#84799f" vector-effect="non-scaling-stroke" d="
  M 96.65 41.68
  L 96.85 42.48
  Q 96.99 43.03 96.45 43.21
  Q 96.12 43.31 95.77 43.39
  Q 95.06 43.56 95.75 43.79
  L 97.65 44.41
  A 0.62 0.62 0.0 0 0 98.47 43.80
  L 98.37 40.54
  A 0.53 0.53 0.0 0 0 97.36 40.34
  Q 96.88 41.41 95.76 41.37
  Q 94.97 41.34 95.73 41.59
  Q 95.96 41.66 96.24 41.50
  Q 96.56 41.33 96.65 41.68"
/>
<path stroke="#84799f" vector-effect="non-scaling-stroke" d="
  M 106.7046 41.7933
  A 0.64 0.57 63.6 0 0 106.9306 40.9666
  A 0.64 0.57 63.6 0 0 106.1354 40.6467
  A 0.64 0.57 63.6 0 0 105.9094 41.4734
  A 0.64 0.57 63.6 0 0 106.7046 41.7933"
/>
<path stroke="#747b81" vector-effect="non-scaling-stroke" d="
  M 74.82 98.89
  A 1.80 1.80 0.0 0 0 73.02 97.09
  A 1.80 1.80 0.0 0 0 71.22 98.89
  A 1.80 1.80 0.0 0 0 73.02 100.69
  A 1.80 1.80 0.0 0 0 74.82 98.89"
/>
<path stroke="#747b81" vector-effect="non-scaling-stroke" d="
  M 114.02 99.66
  A 1.79 1.79 0.0 0 0 112.23 97.87
  A 1.79 1.79 0.0 0 0 110.44 99.66
  A 1.79 1.79 0.0 0 0 112.23 101.45
  A 1.79 1.79 0.0 0 0 114.02 99.66"
/>
<path stroke="#87726c" vector-effect="non-scaling-stroke" d="
  M 86.43 126.41
  Q 87.59 129.23 90.01 131.34
  A 1.86 1.86 0.0 0 0 92.42 131.37
  Q 95.27 128.97 96.64 125.46
  A 1.95 1.94 22.5 0 0 95.61 122.98
  Q 92.33 121.55 88.00 122.66
  Q 85.19 123.38 86.43 126.41"
/>
<path stroke="#9e90ab" vector-effect="non-scaling-stroke" d="
  M 110.56 147.90
  A 2.42 2.42 0.0 0 0 108.14 145.48
  A 2.42 2.42 0.0 0 0 105.72 147.90
  A 2.42 2.42 0.0 0 0 108.14 150.32
  A 2.42 2.42 0.0 0 0 110.56 147.90"
/>
<path stroke="#8a8589" vector-effect="non-scaling-stroke" d="
  M 75.86 147.06
  A 2.05 2.05 0.0 0 0 73.81 145.01
  A 2.05 2.05 0.0 0 0 71.76 147.06
  A 2.05 2.05 0.0 0 0 73.81 149.11
  A 2.05 2.05 0.0 0 0 75.86 147.06"
/>
<path stroke="#d6dbee" vector-effect="non-scaling-stroke" d="
  M 88.86 152.52
  Q 90.65 156.45 92.58 153.22"
/>
<path stroke="#8a8589" vector-effect="non-scaling-stroke" d="
  M 92.58 153.22
  Q 93.09 151.66 92.72 150.70
  Q 92.31 149.66 90.89 149.70
  Q 88.77 149.76 88.86 152.52"
/>
<path stroke="#706e7d" vector-effect="non-scaling-stroke" d="
  M 92.58 153.22
  Q 90.32 153.40 88.86 152.52"
/>
</g>
<path fill="#000000" d="
  M 0.00 0.00
  L 189.00 0.00
  L 189.00 91.04
  Q 187.28 57.77 166.43 33.58
  C 130.45 -8.17 65.45 -10.09 27.09 29.72
  C -20.63 79.25 0.40 162.52 65.56 183.46
  C 92.03 191.96 121.78 188.62 145.33 173.47
  Q 185.23 147.79 189.00 98.08
  L 189.00 190.00
  L 0.00 190.00
  L 0.00 0.00
  Z"
/>
<path fill="#ceb1d8" d="
  M 189.00 91.04
  L 189.00 98.08
  Q 185.23 147.79 145.33 173.47
  C 121.78 188.62 92.03 191.96 65.56 183.46
  C 0.40 162.52 -20.63 79.25 27.09 29.72
  C 65.45 -10.09 130.45 -8.17 166.43 33.58
  Q 187.28 57.77 189.00 91.04
  Z
  M 76.25 167.38
  Q 87.25 169.61 94.98 168.94
  Q 95.86 168.86 98.99 168.86
  Q 103.41 168.86 108.64 167.91
  Q 113.28 167.07 117.94 165.29
  Q 132.58 159.71 144.54 149.43
  C 145.52 148.59 146.89 148.32 147.81 147.20
  Q 149.15 145.56 149.23 145.48
  Q 154.17 140.65 158.76 133.38
  Q 164.14 124.87 165.72 119.50
  Q 168.40 110.41 169.61 105.01
  Q 172.37 92.70 169.57 79.86
  Q 168.63 75.59 165.86 66.50
  Q 164.01 60.46 161.30 55.70
  C 156.32 46.96 150.53 38.62 142.52 32.41
  Q 137.62 28.60 133.47 25.83
  Q 128.78 22.71 123.47 20.66
  Q 122.90 20.44 121.94 19.80
  C 120.63 18.92 118.87 18.89 117.77 18.36
  C 116.70 17.85 115.31 16.99 114.16 16.78
  Q 109.86 15.98 105.84 14.33
  Q 104.06 13.59 102.54 13.52
  C 99.62 13.38 96.73 13.62 93.92 13.38
  Q 86.79 12.77 81.26 13.63
  Q 75.25 14.57 65.76 17.66
  Q 59.78 19.60 49.98 25.59
  Q 42.83 29.95 33.54 39.54
  C 31.47 41.68 30.79 44.12 29.66 45.83
  Q 23.69 54.97 18.20 68.28
  Q 14.11 78.22 13.56 87.38
  Q 13.40 90.00 14.08 94.57
  Q 14.61 98.14 14.87 101.75
  Q 15.74 114.07 21.39 124.82
  Q 22.36 126.67 25.14 130.29
  C 26.82 132.48 28.21 135.57 30.10 137.48
  Q 30.86 138.24 31.34 139.20
  Q 32.33 141.16 32.88 141.79
  Q 39.51 149.25 47.54 155.19
  C 48.52 155.92 49.79 156.12 50.76 156.74
  Q 60.96 163.16 72.66 166.08
  Q 73.14 166.20 73.55 166.47
  Q 74.35 167.00 76.25 167.38
  Z"
/>
<path fill="#bcc4e2" d="
  M 76.25 167.38
  Q 74.35 167.00 73.55 166.47
  Q 73.14 166.20 72.66 166.08
  Q 60.96 163.16 50.76 156.74
  C 49.79 156.12 48.52 155.92 47.54 155.19
  Q 39.51 149.25 32.88 141.79
  Q 32.33 141.16 31.34 139.20
  Q 30.86 138.24 30.10 137.48
  C 28.21 135.57 26.82 132.48 25.14 130.29
  Q 22.36 126.67 21.39 124.82
  Q 15.74 114.07 14.87 101.75
  Q 14.61 98.14 14.08 94.57
  Q 13.40 90.00 13.56 87.38
  Q 14.11 78.22 18.20 68.28
  Q 23.69 54.97 29.66 45.83
  C 30.79 44.12 31.47 41.68 33.54 39.54
  Q 42.83 29.95 49.98 25.59
  Q 59.78 19.60 65.76 17.66
  Q 75.25 14.57 81.26 13.63
  Q 86.79 12.77 93.92 13.38
  C 96.73 13.62 99.62 13.38 102.54 13.52
  Q 104.06 13.59 105.84 14.33
  Q 109.86 15.98 114.16 16.78
  C 115.31 16.99 116.70 17.85 117.77 18.36
  C 118.87 18.89 120.63 18.92 121.94 19.80
  Q 122.90 20.44 123.47 20.66
  Q 128.78 22.71 133.47 25.83
  Q 137.62 28.60 142.52 32.41
  C 150.53 38.62 156.32 46.96 161.30 55.70
  Q 164.01 60.46 165.86 66.50
  Q 168.63 75.59 169.57 79.86
  Q 172.37 92.70 169.61 105.01
  Q 168.40 110.41 165.72 119.50
  Q 164.14 124.87 158.76 133.38
  Q 154.17 140.65 149.23 145.48
  Q 149.15 145.56 147.81 147.20
  C 146.89 148.32 145.52 148.59 144.54 149.43
  Q 132.58 159.71 117.94 165.29
  Q 113.28 167.07 108.64 167.91
  Q 103.41 168.86 98.99 168.86
  Q 95.86 168.86 94.98 168.94
  Q 87.25 169.61 76.25 167.38
  Z
  M 91.40 32.11
  Q 92.05 31.98 92.71 32.12
  A 0.76 0.75 14.4 0 0 93.60 31.60
  L 93.89 30.65
  Q 94.05 30.12 93.51 29.98
  C 86.99 28.35 87.58 37.33 93.49 35.42
  Q 93.97 35.26 93.90 34.77
  Q 93.59 32.69 91.49 32.79
  A 0.35 0.34 37.8 0 1 91.40 32.11
  Z
  M 100.52 32.70
  A 2.91 2.91 0.0 0 0 97.61 29.79
  A 2.91 2.91 0.0 0 0 94.70 32.70
  A 2.91 2.91 0.0 0 0 97.61 35.61
  A 2.91 2.91 0.0 0 0 100.52 32.70
  Z
  M 107.16 32.70
  A 2.92 2.92 0.0 0 0 104.24 29.78
  A 2.92 2.92 0.0 0 0 101.32 32.70
  A 2.92 2.92 0.0 0 0 104.24 35.62
  A 2.92 2.92 0.0 0 0 107.16 32.70
  Z
  M 110.88 34.50
  Q 111.50 35.91 113.06 35.70
  A 1.08 1.07 85.3 0 0 113.98 34.60
  L 113.84 30.57
  Q 113.82 30.09 113.36 29.93
  Q 111.69 29.36 110.89 30.82
  Q 110.52 31.49 110.20 30.80
  Q 109.73 29.79 108.62 29.89
  A 0.60 0.59 88.4 0 0 108.07 30.48
  L 108.01 35.01
  A 0.54 0.54 0.0 0 0 108.41 35.53
  Q 110.00 35.95 110.36 34.54
  Q 110.56 33.77 110.88 34.50
  Z
  M 71.74 33.98
  L 72.12 35.00
  A 0.80 0.79 84.6 0 0 72.72 35.50
  Q 75.72 35.99 78.20 34.55
  Q 78.65 34.29 79.04 34.63
  Q 80.12 35.61 81.63 35.54
  Q 82.28 35.51 82.06 34.90
  L 80.51 30.61
  Q 80.32 30.09 79.77 30.00
  Q 75.57 29.28 75.65 33.30
  Q 75.66 33.75 75.31 34.06
  L 74.74 34.55
  A 0.54 0.54 0.0 0 1 73.85 34.11
  L 74.05 30.80
  A 0.77 0.76 -87.9 0 0 73.30 29.98
  L 69.18 29.92
  A 0.66 0.65 0.9 0 0 68.50 30.57
  L 68.50 34.90
  A 0.66 0.66 0.0 0 0 69.14 35.56
  L 70.22 35.58
  Q 70.81 35.60 70.90 35.02
  L 71.06 34.05
  A 0.35 0.35 0.0 0 1 71.74 33.98
  Z
  M 85.94 32.20
  Q 87.47 32.17 88.00 30.80
  A 0.46 0.46 0.0 0 0 87.74 30.21
  C 81.40 27.60 81.10 37.60 87.57 35.33
  Q 88.07 35.15 87.94 34.64
  L 87.67 33.57
  A 0.72 0.72 0.0 0 0 87.00 33.02
  L 85.94 32.98
  A 0.39 0.39 0.0 0 1 85.94 32.20
  Z
  M 114.83 30.58
  Q 114.62 31.39 115.00 32.04
  A 1.05 1.05 0.0 0 0 116.92 31.77
  Q 117.36 30.06 115.75 29.93
  A 0.88 0.88 0.0 0 0 114.83 30.58
  Z
  M 120.95 31.15
  Q 121.71 31.56 121.82 31.50
  A 0.90 0.82 -58.9 0 0 121.50 29.86
  L 118.71 29.98
  Q 118.16 30.00 118.15 30.54
  L 118.10 32.47
  Q 118.09 33.08 118.70 33.12
  Q 119.53 33.16 119.84 33.88
  A 0.25 0.25 0.0 0 1 119.55 34.22
  L 118.47 33.98
  A 0.73 0.72 -30.3 0 0 118.10 35.38
  Q 120.02 35.95 122.05 35.34
  A 1.60 1.47 35.8 0 0 121.44 32.37
  Q 120.96 32.35 120.47 31.75
  A 0.39 0.39 0.0 0 1 120.95 31.15
  Z
  M 115.70 135.06
  Q 121.49 134.77 127.19 133.77
  C 130.87 133.12 131.95 129.56 134.89 127.79
  Q 146.86 120.61 156.08 110.06
  Q 157.19 108.79 156.90 107.21
  Q 156.81 106.70 156.42 106.37
  Q 153.15 103.60 154.34 98.77
  Q 155.69 93.28 158.09 88.47
  A 1.88 1.87 -79.3 0 0 156.25 85.76
  C 146.21 86.67 136.93 85.59 135.60 73.48
  C 134.90 67.22 138.62 59.58 140.86 54.84
  C 142.51 51.36 144.89 42.63 140.21 40.54
  C 135.50 38.44 124.82 45.89 120.60 48.62
  C 117.68 50.51 114.06 51.33 111.00 50.55
  Q 93.78 46.21 76.67 50.68
  C 72.70 51.71 59.85 43.14 56.21 40.72
  C 50.41 36.84 44.45 41.63 46.23 48.02
  Q 48.47 56.12 51.44 64.02
  Q 54.73 72.79 48.49 80.48
  Q 44.44 85.47 37.41 85.30
  C 35.24 85.25 33.10 84.29 30.95 83.75
  A 1.35 1.34 4.5 0 0 29.28 85.17
  Q 29.92 92.37 31.41 98.78
  Q 32.31 102.60 29.49 105.05
  A 1.17 1.16 68.1 0 0 29.08 106.02
  Q 29.16 107.01 29.82 108.45
  Q 35.96 121.58 48.85 125.99
  A 0.48 0.44 77.0 0 1 49.07 126.14
  L 54.18 131.96
  A 0.73 0.69 70.4 0 0 54.61 132.18
  L 71.21 133.96
  Q 71.83 134.03 72.11 134.58
  C 74.08 138.50 76.55 141.82 80.67 143.62
  C 90.43 147.89 103.31 145.93 109.85 136.90
  C 111.33 134.85 113.10 134.40 115.26 135.57
  A 0.12 0.11 19.3 0 0 115.42 135.50
  Q 115.46 135.36 115.50 135.22
  A 0.22 0.22 0.0 0 1 115.70 135.06
  Z
  M 80.25 43.25
  L 81.09 43.14
  Q 81.85 43.04 81.71 42.29
  L 81.60 41.75
  A 0.97 0.97 0.0 0 1 83.31 40.95
  C 84.52 42.44 83.69 45.09 86.12 45.26
  Q 86.68 45.29 86.83 44.75
  L 87.13 43.62
  A 0.44 0.44 0.0 0 1 87.97 43.58
  L 88.36 44.63
  A 1.13 1.13 0.0 0 0 90.49 44.61
  L 91.93 40.40
  A 0.76 0.76 0.0 0 0 91.11 39.40
  Q 89.94 39.55 89.48 40.62
  A 0.42 0.41 49.3 0 1 88.70 40.56
  L 88.44 39.64
  A 0.43 0.43 0.0 0 0 87.84 39.37
  L 86.87 39.86
  Q 86.14 40.22 85.36 40.00
  Q 82.08 39.09 78.65 39.58
  A 0.73 0.73 0.0 0 0 78.03 40.29
  L 77.98 44.56
  Q 77.97 45.16 78.57 45.16
  L 81.94 45.15
  A 0.57 0.57 0.0 0 0 82.51 44.55
  L 82.48 44.14
  Q 82.44 43.44 81.77 43.64
  Q 80.95 43.89 80.22 43.71
  A 0.24 0.23 -41.4 0 1 80.25 43.25
  Z
  M 101.14 43.47
  A 0.32 0.32 0.0 0 1 100.96 43.20
  L 100.78 39.84
  A 0.32 0.32 0.0 0 0 100.46 39.54
  L 93.40 39.56
  A 0.32 0.32 0.0 0 0 93.08 39.86
  L 92.78 44.79
  A 0.32 0.32 0.0 0 0 93.10 45.13
  L 103.01 45.09
  A 0.32 0.32 0.0 0 0 103.15 44.49
  L 101.14 43.47
  Z
  M 106.00 43.49
  A 0.52 0.52 0.0 0 1 107.03 43.36
  L 107.31 44.68
  Q 107.42 45.20 107.95 45.19
  L 109.61 45.17
  A 0.50 0.50 0.0 0 0 110.01 44.39
  Q 108.80 42.65 109.50 40.58
  A 0.68 0.68 0.0 0 0 108.92 39.69
  L 104.71 39.32
  Q 103.91 39.25 103.90 40.05
  L 103.84 44.38
  A 1.08 1.07 -41.2 0 0 105.98 44.52
  Q 106.02 44.21 106.00 43.49
  Z
  M 113.06 40.43
  Q 112.44 39.25 110.98 39.42
  Q 110.25 39.51 110.68 40.11
  Q 112.22 42.25 112.41 44.30
  A 1.24 1.24 0.0 0 0 114.88 44.16
  Q 114.83 41.88 116.43 40.13
  A 0.51 0.51 0.0 0 0 116.08 39.28
  Q 114.53 39.18 113.94 40.41
  A 0.49 0.49 0.0 0 1 113.06 40.43
  Z
  M 73.95 44.93
  L 76.24 45.27
  A 0.27 0.27 0.0 0 0 76.55 45.04
  L 77.05 41.72
  A 2.11 0.78 -81.5 0 0 76.59 39.52
  L 75.30 39.33
  A 2.11 0.78 -81.5 0 0 74.22 41.30
  L 73.72 44.62
  A 0.27 0.27 0.0 0 0 73.95 44.93
  Z
  M 70.43 138.74
  L 70.24 139.38
  Q 70.06 140.00 70.70 140.08
  Q 70.96 140.12 71.21 140.05
  Q 71.48 139.98 71.43 139.71
  L 70.68 135.28
  Q 70.61 134.83 70.39 135.23
  Q 69.63 136.63 70.35 137.98
  Q 70.55 138.35 70.43 138.74
  Z
  M 112.29 143.44
  L 109.10 142.08
  A 0.65 0.64 24.9 0 0 108.27 142.38
  L 107.97 142.99
  A 0.62 0.60 15.1 0 1 107.36 143.33
  L 105.25 143.12
  A 0.80 0.79 6.9 0 0 104.39 143.79
  Q 104.08 145.91 102.64 147.44
  A 0.65 0.64 -36.1 0 0 102.52 148.15
  L 104.42 152.24
  A 0.58 0.58 0.0 0 0 105.09 152.56
  L 106.64 152.18
  Q 107.17 152.05 107.58 152.42
  L 108.50 153.26
  Q 108.91 153.64 109.33 153.26
  L 112.68 150.18
  Q 113.03 149.85 113.12 149.39
  Q 113.78 146.01 112.86 143.24
  L 113.18 143.18
  Q 113.45 143.12 113.55 142.86
  L 115.80 137.26
  A 0.55 0.55 0.0 0 0 114.95 136.62
  Q 114.11 137.26 114.47 138.18
  Q 114.74 138.87 114.04 139.10
  Q 113.19 139.37 113.61 140.19
  A 0.59 0.59 0.0 0 1 113.31 141.00
  Q 111.34 141.83 112.29 143.44
  Z
  M 71.23 142.71
  C 69.30 143.42 69.92 145.83 69.03 147.55
  Q 68.81 147.98 69.08 148.38
  L 70.91 150.98
  Q 71.17 151.35 71.61 151.42
  Q 76.64 152.32 77.82 149.60
  Q 78.50 150.69 79.33 150.65
  A 0.56 0.56 0.0 0 0 79.85 149.97
  L 79.76 149.58
  Q 79.65 149.09 79.14 149.12
  L 78.45 149.16
  Q 79.58 148.43 78.96 147.29
  Q 77.88 145.32 77.62 143.87
  Q 77.54 143.39 77.11 143.16
  Q 74.78 141.94 72.33 142.28
  Q 72.51 141.71 72.05 141.14
  A 0.86 0.85 -62.5 0 0 70.54 141.62
  Q 70.49 142.17 71.23 142.71
  Z
  M 85.78 150.70
  L 84.51 150.56
  A 1.03 0.85 49.5 0 0 84.54 152.45
  Q 84.80 152.51 85.49 152.17
  Q 87.89 157.31 93.06 155.96
  Q 93.56 155.83 93.82 155.39
  L 95.78 152.20
  A 1.05 1.03 47.7 0 0 95.82 151.19
  L 95.52 150.63
  Q 95.31 150.21 95.47 149.77
  Q 95.96 148.44 95.17 147.66
  Q 94.75 147.25 93.61 147.11
  Q 92.55 146.99 91.53 146.70
  Q 91.04 146.56 90.57 146.75
  Q 87.27 148.10 85.78 150.70
  Z
  M 82.05 151.67
  Q 82.87 150.92 82.57 149.90
  A 0.76 0.76 0.0 0 0 81.09 150.26
  L 81.31 151.42
  A 0.45 0.45 0.0 0 0 82.05 151.67
  Z
  M 101.8740 150.5620
  A 0.95 0.81 17.9 0 0 101.2190 149.4992
  A 0.95 0.81 17.9 0 0 100.0660 149.9780
  A 0.95 0.81 17.9 0 0 100.7210 151.0408
  A 0.95 0.81 17.9 0 0 101.8740 150.5620
  Z
  M 98.1624 151.7304
  A 1.12 0.94 47.1 0 0 98.0886 150.2701
  A 1.12 0.94 47.1 0 0 96.6376 150.0896
  A 1.12 0.94 47.1 0 0 96.7114 151.5499
  A 1.12 0.94 47.1 0 0 98.1624 151.7304
  Z"
/>
<path fill="#4c2e5b" d="
  M 91.49 32.79
  Q 93.59 32.69 93.90 34.77
  Q 93.97 35.26 93.49 35.42
  C 87.58 37.33 86.99 28.35 93.51 29.98
  Q 94.05 30.12 93.89 30.65
  L 93.60 31.60
  A 0.76 0.75 14.4 0 1 92.71 32.12
  Q 92.05 31.98 91.40 32.11
  A 0.35 0.34 37.8 0 0 91.49 32.79
  Z"
/>
<path fill="#4c2e5b" d="
  M 100.52 32.70
  A 2.91 2.91 0.0 0 1 97.61 35.61
  A 2.91 2.91 0.0 0 1 94.70 32.70
  A 2.91 2.91 0.0 0 1 97.61 29.79
  A 2.91 2.91 0.0 0 1 100.52 32.70
  Z
  M 96.84 32.97
  Q 96.51 33.71 97.27 33.41
  Q 98.24 33.03 97.99 31.92
  Q 97.75 30.88 97.33 31.85
  L 96.84 32.97
  Z"
/>
<path fill="#4c2e5b" d="
  M 107.16 32.70
  A 2.92 2.92 0.0 0 1 104.24 35.62
  A 2.92 2.92 0.0 0 1 101.32 32.70
  A 2.92 2.92 0.0 0 1 104.24 29.78
  A 2.92 2.92 0.0 0 1 107.16 32.70
  Z
  M 103.84 32.50
  Q 103.79 33.00 104.21 33.15
  A 0.37 0.36 -83.2 0 0 104.69 32.77
  Q 104.64 32.06 103.98 31.82
  Q 103.54 31.66 103.65 32.11
  Q 103.70 32.32 103.84 32.50
  Z"
/>
<path fill="#4c2e5b" d="
  M 110.36 34.54
  Q 110.00 35.95 108.41 35.53
  A 0.54 0.54 0.0 0 1 108.01 35.01
  L 108.07 30.48
  A 0.60 0.59 88.4 0 1 108.62 29.89
  Q 109.73 29.79 110.20 30.80
  Q 110.52 31.49 110.89 30.82
  Q 111.69 29.36 113.36 29.93
  Q 113.82 30.09 113.84 30.57
  L 113.98 34.60
  A 1.08 1.07 85.3 0 1 113.06 35.70
  Q 111.50 35.91 110.88 34.50
  Q 110.56 33.77 110.36 34.54
  Z"
/>
<path fill="#4c2e5b" d="
  M 71.06 34.05
  L 70.90 35.02
  Q 70.81 35.60 70.22 35.58
  L 69.14 35.56
  A 0.66 0.66 0.0 0 1 68.50 34.90
  L 68.50 30.57
  A 0.66 0.65 0.9 0 1 69.18 29.92
  L 73.30 29.98
  A 0.77 0.76 -87.9 0 1 74.05 30.80
  L 73.85 34.11
  A 0.54 0.54 0.0 0 0 74.74 34.55
  L 75.31 34.06
  Q 75.66 33.75 75.65 33.30
  Q 75.57 29.28 79.77 30.00
  Q 80.32 30.09 80.51 30.61
  L 82.06 34.90
  Q 82.28 35.51 81.63 35.54
  Q 80.12 35.61 79.04 34.63
  Q 78.65 34.29 78.20 34.55
  Q 75.72 35.99 72.72 35.50
  A 0.80 0.79 84.6 0 1 72.12 35.00
  L 71.74 33.98
  A 0.35 0.35 0.0 0 0 71.06 34.05
  Z
  M 71.9734 31.9295
  A 0.62 0.53 26.8 0 0 71.6590 31.1769
  A 0.62 0.53 26.8 0 0 70.8666 31.3705
  A 0.62 0.53 26.8 0 0 71.1810 32.1231
  A 0.62 0.53 26.8 0 0 71.9734 31.9295
  Z"
/>
<path fill="#4c2e5b" d="
  M 85.94 32.98
  L 87.00 33.02
  A 0.72 0.72 0.0 0 1 87.67 33.57
  L 87.94 34.64
  Q 88.07 35.15 87.57 35.33
  C 81.10 37.60 81.40 27.60 87.74 30.21
  A 0.46 0.46 0.0 0 1 88.00 30.80
  Q 87.47 32.17 85.94 32.20
  A 0.39 0.39 0.0 0 0 85.94 32.98
  Z"
/>
<path fill="#4c2e5b" d="
  M 114.83 30.58
  A 0.88 0.88 0.0 0 1 115.75 29.93
  Q 117.36 30.06 116.92 31.77
  A 1.05 1.05 0.0 0 1 115.00 32.04
  Q 114.62 31.39 114.83 30.58
  Z"
/>
<path fill="#4c2e5b" d="
  M 120.47 31.75
  Q 120.96 32.35 121.44 32.37
  A 1.60 1.47 35.8 0 1 122.05 35.34
  Q 120.02 35.95 118.10 35.38
  A 0.73 0.72 -30.3 0 1 118.47 33.98
  L 119.55 34.22
  A 0.25 0.25 0.0 0 0 119.84 33.88
  Q 119.53 33.16 118.70 33.12
  Q 118.09 33.08 118.10 32.47
  L 118.15 30.54
  Q 118.16 30.00 118.71 29.98
  L 121.50 29.86
  A 0.90 0.82 -58.9 0 1 121.82 31.50
  Q 121.71 31.56 120.95 31.15
  A 0.39 0.39 0.0 0 0 120.47 31.75
  Z"
/>
<ellipse fill="#bcc4e2" cx="0.00" cy="0.00" transform="translate(71.42,31.65) rotate(26.8)" rx="0.62" ry="0.53"/>
<path fill="#bcc4e2" d="
  M 96.84 32.97
  L 97.33 31.85
  Q 97.75 30.88 97.99 31.92
  Q 98.24 33.03 97.27 33.41
  Q 96.51 33.71 96.84 32.97
  Z"
/>
<path fill="#bcc4e2" d="
  M 103.84 32.50
  Q 103.70 32.32 103.65 32.11
  Q 103.54 31.66 103.98 31.82
  Q 104.64 32.06 104.69 32.77
  A 0.37 0.36 -83.2 0 1 104.21 33.15
  Q 103.79 33.00 103.84 32.50
  Z"
/>
<path fill="#241718" d="
  M 115.50 135.22
  Q 115.46 135.36 115.42 135.50
  A 0.12 0.11 19.3 0 1 115.26 135.57
  C 113.10 134.40 111.33 134.85 109.85 136.90
  C 103.31 145.93 90.43 147.89 80.67 143.62
  C 76.55 141.82 74.08 138.50 72.11 134.58
  Q 71.83 134.03 71.21 133.96
  L 54.61 132.18
  A 0.73 0.69 70.4 0 1 54.18 131.96
  L 49.07 126.14
  A 0.48 0.44 77.0 0 0 48.85 125.99
  Q 35.96 121.58 29.82 108.45
  Q 29.16 107.01 29.08 106.02
  A 1.17 1.16 68.1 0 1 29.49 105.05
  Q 32.31 102.60 31.41 98.78
  Q 29.92 92.37 29.28 85.17
  A 1.35 1.34 4.5 0 1 30.95 83.75
  C 33.10 84.29 35.24 85.25 37.41 85.30
  Q 44.44 85.47 48.49 80.48
  Q 54.73 72.79 51.44 64.02
  Q 48.47 56.12 46.23 48.02
  C 44.45 41.63 50.41 36.84 56.21 40.72
  C 59.85 43.14 72.70 51.71 76.67 50.68
  Q 93.78 46.21 111.00 50.55
  C 114.06 51.33 117.68 50.51 120.60 48.62
  C 124.82 45.89 135.50 38.44 140.21 40.54
  C 144.89 42.63 142.51 51.36 140.86 54.84
  C 138.62 59.58 134.90 67.22 135.60 73.48
  C 136.93 85.59 146.21 86.67 156.25 85.76
  A 1.88 1.87 -79.3 0 1 158.09 88.47
  Q 155.69 93.28 154.34 98.77
  Q 153.15 103.60 156.42 106.37
  Q 156.81 106.70 156.90 107.21
  Q 157.19 108.79 156.08 110.06
  Q 146.86 120.61 134.89 127.79
  C 131.95 129.56 130.87 133.12 127.19 133.77
  Q 121.49 134.77 115.70 135.06
  A 0.22 0.22 0.0 0 0 115.50 135.22
  Z
  M 63.81 50.68
  Q 58.48 48.78 54.49 44.85
  C 52.52 42.91 48.39 43.13 49.06 46.51
  C 49.75 50.06 52.26 58.26 55.52 60.85
  A 1.12 1.12 0.0 0 0 56.49 61.07
  Q 62.27 59.66 66.24 55.24
  A 1.26 1.23 -27.1 0 0 66.56 54.29
  Q 66.32 51.58 63.81 50.68
  Z
  M 131.73 47.64
  C 129.49 49.05 127.18 49.32 124.99 51.29
  A 1.91 1.91 0.0 0 0 124.87 54.01
  C 126.50 55.77 130.81 59.69 133.28 57.83
  Q 138.48 53.91 138.75 47.13
  Q 138.79 46.04 138.24 45.47
  C 136.38 43.53 133.34 46.62 131.73 47.64
  Z
  M 73.23 128.75
  Q 73.25 130.11 73.47 130.71
  Q 77.81 142.45 89.24 143.71
  C 95.70 144.43 101.72 143.73 106.36 139.04
  C 109.41 135.96 112.04 133.29 110.86 128.99
  C 113.11 128.43 118.25 125.20 116.46 122.30
  C 113.20 117.04 106.01 108.60 103.67 100.19
  C 101.63 92.83 108.03 89.15 114.12 92.09
  Q 116.03 93.02 118.68 96.60
  Q 124.57 104.58 130.47 112.56
  Q 131.49 113.95 134.22 114.04
  Q 134.71 114.06 135.11 113.76
  Q 142.27 108.30 147.26 100.72
  C 149.03 98.03 147.71 96.09 144.89 95.26
  C 140.81 94.07 134.71 93.32 132.54 88.79
  C 131.23 86.05 131.78 81.75 131.68 78.49
  A 2.64 2.64 0.0 0 0 130.42 76.33
  C 123.88 72.36 114.82 77.21 110.37 82.09
  C 108.50 84.14 104.76 91.38 101.26 89.68
  Q 99.15 88.66 99.12 86.74
  Q 99.02 79.96 94.00 76.88
  Q 93.51 76.58 92.98 76.76
  C 88.40 78.31 87.55 82.11 86.89 87.08
  A 0.78 0.77 84.2 0 1 86.40 87.69
  Q 83.10 88.94 81.28 86.67
  Q 74.12 77.74 64.83 74.30
  C 61.06 72.90 57.90 72.75 55.51 76.25
  C 53.25 79.57 56.26 84.34 53.10 87.22
  C 48.81 91.13 35.43 90.64 39.59 100.11
  Q 42.18 105.99 46.39 111.47
  A 2.13 2.12 -35.4 0 0 49.24 111.95
  C 55.64 107.75 59.93 100.89 65.45 95.26
  C 70.05 90.56 82.97 88.24 81.54 99.24
  C 80.51 107.15 72.90 114.96 68.12 121.17
  Q 66.73 122.99 66.78 126.23
  A 1.00 0.98 18.4 0 0 67.19 127.03
  Q 69.61 128.78 73.23 128.75
  Z
  M 76.7856 95.7606
  A 5.17 4.70 -42.6 0 0 69.7987 95.8003
  A 5.17 4.70 -42.6 0 0 69.1744 102.7594
  A 5.17 4.70 -42.6 0 0 76.1613 102.7197
  A 5.17 4.70 -42.6 0 0 76.7856 95.7606
  Z
  M 116.3652 96.3625
  A 5.54 5.10 -43.7 0 0 108.8365 96.5029
  A 5.54 5.10 -43.7 0 0 108.3548 104.0175
  A 5.54 5.10 -43.7 0 0 115.8835 103.8771
  A 5.54 5.10 -43.7 0 0 116.3652 96.3625
  Z"
/>
<path fill="#4c2e5b" d="
  M 80.22 43.71
  Q 80.95 43.89 81.77 43.64
  Q 82.44 43.44 82.48 44.14
  L 82.51 44.55
  A 0.57 0.57 0.0 0 1 81.94 45.15
  L 78.57 45.16
  Q 77.97 45.16 77.98 44.56
  L 78.03 40.29
  A 0.73 0.73 0.0 0 1 78.65 39.58
  Q 82.08 39.09 85.36 40.00
  Q 86.14 40.22 86.87 39.86
  L 87.84 39.37
  A 0.43 0.43 0.0 0 1 88.44 39.64
  L 88.70 40.56
  A 0.42 0.41 49.3 0 0 89.48 40.62
  Q 89.94 39.55 91.11 39.40
  A 0.76 0.76 0.0 0 1 91.93 40.40
  L 90.49 44.61
  A 1.13 1.13 0.0 0 1 88.36 44.63
  L 87.97 43.58
  A 0.44 0.44 0.0 0 0 87.13 43.62
  L 86.83 44.75
  Q 86.68 45.29 86.12 45.26
  C 83.69 45.09 84.52 42.44 83.31 40.95
  A 0.97 0.97 0.0 0 0 81.60 41.75
  L 81.71 42.29
  Q 81.85 43.04 81.09 43.14
  L 80.25 43.25
  A 0.24 0.23 -41.4 0 0 80.22 43.71
  Z
  M 80.81 41.54
  Q 81.07 41.29 80.72 41.17
  L 80.36 41.06
  A 0.38 0.38 0.0 0 0 79.87 41.48
  Q 80.00 42.34 80.81 41.54
  Z"
/>
<path fill="#4c2e5b" d="
  M 101.14 43.47
  L 103.15 44.49
  A 0.32 0.32 0.0 0 1 103.01 45.09
  L 93.10 45.13
  A 0.32 0.32 0.0 0 1 92.78 44.79
  L 93.08 39.86
  A 0.32 0.32 0.0 0 1 93.40 39.56
  L 100.46 39.54
  A 0.32 0.32 0.0 0 1 100.78 39.84
  L 100.96 43.20
  A 0.32 0.32 0.0 0 0 101.14 43.47
  Z
  M 96.65 41.68
  L 96.85 42.48
  Q 96.99 43.03 96.45 43.21
  Q 96.12 43.31 95.77 43.39
  Q 95.06 43.56 95.75 43.79
  L 97.65 44.41
  A 0.62 0.62 0.0 0 0 98.47 43.80
  L 98.37 40.54
  A 0.53 0.53 0.0 0 0 97.36 40.34
  Q 96.88 41.41 95.76 41.37
  Q 94.97 41.34 95.73 41.59
  Q 95.96 41.66 96.24 41.50
  Q 96.56 41.33 96.65 41.68
  Z"
/>
<path fill="#4c2e5b" d="
  M 106.00 43.49
  Q 106.02 44.21 105.98 44.52
  A 1.08 1.07 -41.2 0 1 103.84 44.38
  L 103.90 40.05
  Q 103.91 39.25 104.71 39.32
  L 108.92 39.69
  A 0.68 0.68 0.0 0 1 109.50 40.58
  Q 108.80 42.65 110.01 44.39
  A 0.50 0.50 0.0 0 1 109.61 45.17
  L 107.95 45.19
  Q 107.42 45.20 107.31 44.68
  L 107.03 43.36
  A 0.52 0.52 0.0 0 0 106.00 43.49
  Z
  M 106.7046 41.7933
  A 0.64 0.57 63.6 0 0 106.9306 40.9666
  A 0.64 0.57 63.6 0 0 106.1354 40.6467
  A 0.64 0.57 63.6 0 0 105.9094 41.4734
  A 0.64 0.57 63.6 0 0 106.7046 41.7933
  Z"
/>
<path fill="#4c2e5b" d="
  M 113.94 40.41
  Q 114.53 39.18 116.08 39.28
  A 0.51 0.51 0.0 0 1 116.43 40.13
  Q 114.83 41.88 114.88 44.16
  A 1.24 1.24 0.0 0 1 112.41 44.30
  Q 112.22 42.25 110.68 40.11
  Q 110.25 39.51 110.98 39.42
  Q 112.44 39.25 113.06 40.43
  A 0.49 0.49 0.0 0 0 113.94 40.41
  Z"
/>
<path fill="#4c2e5b" d="
  M 73.95 44.93
  A 0.27 0.27 0.0 0 1 73.72 44.62
  L 74.22 41.30
  A 2.11 0.78 -81.5 0 1 75.30 39.33
  L 76.59 39.52
  A 2.11 0.78 -81.5 0 1 77.05 41.72
  L 76.55 45.04
  A 0.27 0.27 0.0 0 1 76.24 45.27
  L 73.95 44.93
  Z"
/>
<path fill="#bcc4e2" d="
  M 96.24 41.50
  Q 95.96 41.66 95.73 41.59
  Q 94.97 41.34 95.76 41.37
  Q 96.88 41.41 97.36 40.34
  A 0.53 0.53 0.0 0 1 98.37 40.54
  L 98.47 43.80
  A 0.62 0.62 0.0 0 1 97.65 44.41
  L 95.75 43.79
  Q 95.06 43.56 95.77 43.39
  Q 96.12 43.31 96.45 43.21
  Q 96.99 43.03 96.85 42.48
  L 96.65 41.68
  Q 96.56 41.33 96.24 41.50
  Z"
/>
<ellipse fill="#bcc4e2" cx="0.00" cy="0.00" transform="translate(106.42,41.22) rotate(63.6)" rx="0.64" ry="0.57"/>
<path fill="#bcc4e2" d="
  M 80.81 41.54
  Q 80.00 42.34 79.87 41.48
  A 0.38 0.38 0.0 0 1 80.36 41.06
  L 80.72 41.17
  Q 81.07 41.29 80.81 41.54
  Z"
/>
<path fill="#eaccbf" d="
  M 63.81 50.68
  Q 66.32 51.58 66.56 54.29
  A 1.26 1.23 -27.1 0 1 66.24 55.24
  Q 62.27 59.66 56.49 61.07
  A 1.12 1.12 0.0 0 1 55.52 60.85
  C 52.26 58.26 49.75 50.06 49.06 46.51
  C 48.39 43.13 52.52 42.91 54.49 44.85
  Q 58.48 48.78 63.81 50.68
  Z"
/>
<path fill="#eaccbf" d="
  M 131.73 47.64
  C 133.34 46.62 136.38 43.53 138.24 45.47
  Q 138.79 46.04 138.75 47.13
  Q 138.48 53.91 133.28 57.83
  C 130.81 59.69 126.50 55.77 124.87 54.01
  A 1.91 1.91 0.0 0 1 124.99 51.29
  C 127.18 49.32 129.49 49.05 131.73 47.64
  Z"
/>
<path fill="#b78982" d="
  M 110.86 128.99
  C 108.56 121.65 103.77 115.91 95.82 114.89
  Q 78.49 112.66 73.23 128.75
  Q 69.61 128.78 67.19 127.03
  A 1.00 0.98 18.4 0 1 66.78 126.23
  Q 66.73 122.99 68.12 121.17
  C 72.90 114.96 80.51 107.15 81.54 99.24
  C 82.97 88.24 70.05 90.56 65.45 95.26
  C 59.93 100.89 55.64 107.75 49.24 111.95
  A 2.13 2.12 -35.4 0 1 46.39 111.47
  Q 42.18 105.99 39.59 100.11
  C 35.43 90.64 48.81 91.13 53.10 87.22
  C 56.26 84.34 53.25 79.57 55.51 76.25
  C 57.90 72.75 61.06 72.90 64.83 74.30
  Q 74.12 77.74 81.28 86.67
  Q 83.10 88.94 86.40 87.69
  A 0.78 0.77 84.2 0 0 86.89 87.08
  C 87.55 82.11 88.40 78.31 92.98 76.76
  Q 93.51 76.58 94.00 76.88
  Q 99.02 79.96 99.12 86.74
  Q 99.15 88.66 101.26 89.68
  C 104.76 91.38 108.50 84.14 110.37 82.09
  C 114.82 77.21 123.88 72.36 130.42 76.33
  A 2.64 2.64 0.0 0 1 131.68 78.49
  C 131.78 81.75 131.23 86.05 132.54 88.79
  C 134.71 93.32 140.81 94.07 144.89 95.26
  C 147.71 96.09 149.03 98.03 147.26 100.72
  Q 142.27 108.30 135.11 113.76
  Q 134.71 114.06 134.22 114.04
  Q 131.49 113.95 130.47 112.56
  Q 124.57 104.58 118.68 96.60
  Q 116.03 93.02 114.12 92.09
  C 108.03 89.15 101.63 92.83 103.67 100.19
  C 106.01 108.60 113.20 117.04 116.46 122.30
  C 118.25 125.20 113.11 128.43 110.86 128.99
  Z"
/>
<path fill="#c3deea" d="
  M 76.7856 95.7606
  A 5.17 4.70 -42.6 0 1 76.1613 102.7197
  A 5.17 4.70 -42.6 0 1 69.1744 102.7594
  A 5.17 4.70 -42.6 0 1 69.7987 95.8003
  A 5.17 4.70 -42.6 0 1 76.7856 95.7606
  Z
  M 74.82 98.89
  A 1.80 1.80 0.0 0 0 73.02 97.09
  A 1.80 1.80 0.0 0 0 71.22 98.89
  A 1.80 1.80 0.0 0 0 73.02 100.69
  A 1.80 1.80 0.0 0 0 74.82 98.89
  Z"
/>
<path fill="#c3deea" d="
  M 116.3652 96.3625
  A 5.54 5.10 -43.7 0 1 115.8835 103.8771
  A 5.54 5.10 -43.7 0 1 108.3548 104.0175
  A 5.54 5.10 -43.7 0 1 108.8365 96.5029
  A 5.54 5.10 -43.7 0 1 116.3652 96.3625
  Z
  M 114.02 99.66
  A 1.79 1.79 0.0 0 0 112.23 97.87
  A 1.79 1.79 0.0 0 0 110.44 99.66
  A 1.79 1.79 0.0 0 0 112.23 101.45
  A 1.79 1.79 0.0 0 0 114.02 99.66
  Z"
/>
<circle fill="#241718" cx="73.02" cy="98.89" r="1.80"/>
<circle fill="#241718" cx="112.23" cy="99.66" r="1.79"/>
<path fill="#eaccbf" d="
  M 110.86 128.99
  C 112.04 133.29 109.41 135.96 106.36 139.04
  C 101.72 143.73 95.70 144.43 89.24 143.71
  Q 77.81 142.45 73.47 130.71
  Q 73.25 130.11 73.23 128.75
  Q 78.49 112.66 95.82 114.89
  C 103.77 115.91 108.56 121.65 110.86 128.99
  Z
  M 86.43 126.41
  Q 87.59 129.23 90.01 131.34
  A 1.86 1.86 0.0 0 0 92.42 131.37
  Q 95.27 128.97 96.64 125.46
  A 1.95 1.94 22.5 0 0 95.61 122.98
  Q 92.33 121.55 88.00 122.66
  Q 85.19 123.38 86.43 126.41
  Z"
/>
<path fill="#241718" d="
  M 86.43 126.41
  Q 85.19 123.38 88.00 122.66
  Q 92.33 121.55 95.61 122.98
  A 1.95 1.94 22.5 0 1 96.64 125.46
  Q 95.27 128.97 92.42 131.37
  A 1.86 1.86 0.0 0 1 90.01 131.34
  Q 87.59 129.23 86.43 126.41
  Z"
/>
<path fill="#241718" d="
  M 70.35 137.98
  Q 69.63 136.63 70.39 135.23
  Q 70.61 134.83 70.68 135.28
  L 71.43 139.71
  Q 71.48 139.98 71.21 140.05
  Q 70.96 140.12 70.70 140.08
  Q 70.06 140.00 70.24 139.38
  L 70.43 138.74
  Q 70.55 138.35 70.35 137.98
  Z"
/>
<path fill="#241718" d="
  M 112.86 143.24
  Q 112.12 143.17 112.29 143.44
  Q 111.34 141.83 113.31 141.00
  A 0.59 0.59 0.0 0 0 113.61 140.19
  Q 113.19 139.37 114.04 139.10
  Q 114.74 138.87 114.47 138.18
  Q 114.11 137.26 114.95 136.62
  A 0.55 0.55 0.0 0 1 115.80 137.26
  L 113.55 142.86
  Q 113.45 143.12 113.18 143.18
  L 112.86 143.24
  Z"
/>
<path fill="#241718" d="
  M 72.33 142.28
  Q 72.00 142.80 71.23 142.71
  Q 70.49 142.17 70.54 141.62
  A 0.86 0.85 -62.5 0 1 72.05 141.14
  Q 72.51 141.71 72.33 142.28
  Z"
/>
<path fill="#eff2fa" d="
  M 112.29 143.44
  Q 112.12 143.17 112.86 143.24
  Q 113.78 146.01 113.12 149.39
  Q 113.03 149.85 112.68 150.18
  L 109.33 153.26
  Q 108.91 153.64 108.50 153.26
  L 107.58 152.42
  Q 107.17 152.05 106.64 152.18
  L 105.09 152.56
  A 0.58 0.58 0.0 0 1 104.42 152.24
  L 102.52 148.15
  A 0.65 0.64 -36.1 0 1 102.64 147.44
  Q 104.08 145.91 104.39 143.79
  A 0.80 0.79 6.9 0 1 105.25 143.12
  L 107.36 143.33
  A 0.62 0.60 15.1 0 0 107.97 142.99
  L 108.27 142.38
  A 0.65 0.64 24.9 0 1 109.10 142.08
  L 112.29 143.44
  Z
  M 110.56 147.90
  A 2.42 2.42 0.0 0 0 108.14 145.48
  A 2.42 2.42 0.0 0 0 105.72 147.90
  A 2.42 2.42 0.0 0 0 108.14 150.32
  A 2.42 2.42 0.0 0 0 110.56 147.90
  Z"
/>
<path fill="#eff2fa" d="
  M 72.33 142.28
  Q 74.78 141.94 77.11 143.16
  Q 77.54 143.39 77.62 143.87
  Q 77.88 145.32 78.96 147.29
  Q 79.58 148.43 78.45 149.16
  Q 78.42 149.36 77.82 149.60
  Q 76.64 152.32 71.61 151.42
  Q 71.17 151.35 70.91 150.98
  L 69.08 148.38
  Q 68.81 147.98 69.03 147.55
  C 69.92 145.83 69.30 143.42 71.23 142.71
  Q 72.00 142.80 72.33 142.28
  Z
  M 75.86 147.06
  A 2.05 2.05 0.0 0 0 73.81 145.01
  A 2.05 2.05 0.0 0 0 71.76 147.06
  A 2.05 2.05 0.0 0 0 73.81 149.11
  A 2.05 2.05 0.0 0 0 75.86 147.06
  Z"
/>
<circle fill="#241718" cx="73.81" cy="147.06" r="2.05"/>
<circle fill="#4c2e5b" cx="108.14" cy="147.90" r="2.42"/>
<path fill="#eff2fa" d="
  M 85.49 152.17
  Q 86.26 151.43 85.78 150.70
  Q 87.27 148.10 90.57 146.75
  Q 91.04 146.56 91.53 146.70
  Q 92.55 146.99 93.61 147.11
  Q 94.75 147.25 95.17 147.66
  Q 95.96 148.44 95.47 149.77
  Q 95.31 150.21 95.52 150.63
  L 95.82 151.19
  A 1.05 1.03 47.7 0 1 95.78 152.20
  L 93.82 155.39
  Q 93.56 155.83 93.06 155.96
  Q 87.89 157.31 85.49 152.17
  Z
  M 88.86 152.52
  Q 90.65 156.45 92.58 153.22
  Q 93.09 151.66 92.72 150.70
  Q 92.31 149.66 90.89 149.70
  Q 88.77 149.76 88.86 152.52
  Z"
/>
<path fill="#241718" d="
  M 77.82 149.60
  Q 78.42 149.36 78.45 149.16
  L 79.14 149.12
  Q 79.65 149.09 79.76 149.58
  L 79.85 149.97
  A 0.56 0.56 0.0 0 1 79.33 150.65
  Q 78.50 150.69 77.82 149.60
  Z"
/>
<path fill="#241718" d="
  M 82.05 151.67
  A 0.45 0.45 0.0 0 1 81.31 151.42
  L 81.09 150.26
  A 0.76 0.76 0.0 0 1 82.57 149.90
  Q 82.87 150.92 82.05 151.67
  Z"
/>
<ellipse fill="#241718" cx="0.00" cy="0.00" transform="translate(100.97,150.27) rotate(17.9)" rx="0.95" ry="0.81"/>
<path fill="#241718" d="
  M 92.58 153.22
  Q 90.32 153.40 88.86 152.52
  Q 88.77 149.76 90.89 149.70
  Q 92.31 149.66 92.72 150.70
  Q 93.09 151.66 92.58 153.22
  Z"
/>
<ellipse fill="#241718" cx="0.00" cy="0.00" transform="translate(97.40,150.91) rotate(47.1)" rx="1.12" ry="0.94"/>
<path fill="#241718" d="
  M 85.78 150.70
  Q 86.26 151.43 85.49 152.17
  Q 84.80 152.51 84.54 152.45
  A 1.03 0.85 49.5 0 1 84.51 150.56
  L 85.78 150.70
  Z"
/>
<path fill="#bcc4e2" d="
  M 88.86 152.52
  Q 90.32 153.40 92.58 153.22
  Q 90.65 156.45 88.86 152.52
  Z"
/>
</svg>
